<svg xmlns="http://www.w3.org/2000/svg" version="1.1" width="600px" height="600px" viewBox="0 0 200 200" style="overflow:hidden!important;"><g id="svga-group-wrapper"><g id="svga-group-backs-single"></g><g id="svga-group-humanwrap-move" transform="matrix(1,0,0,1,0,0)"><g id="svga-group-humanwrap"><g id="svga-group-hair-back-move" transform="matrix(1,0,0,1,0,0)"><g id="svga-group-hair-back"><path id="SvgjsPath13391" d="M123.7 122c1.7 12.1 2.4 24.2 2.3 36.3 0 2.4 3.7 2.4 3.8 0 .1-12.5-.7-24.9-2.4-37.3-.4-2.4-4-1.4-3.7 1zm3.8-4.1c2.3 11.6 3.3 23.3 3.1 35.2-.1 2.4 3.7 2.4 3.8 0 .3-12.2-.8-24.2-3.2-36.2-.6-2.4-4.2-1.4-3.7 1zm7.2-6.8c-.7-2.3-4.4-1.3-3.6 1 3.9 12.1 4 25.7 3.5 38.3-.1 2.4 3.7 2.4 3.8 0 .5-12.9.3-26.9-3.7-39.3zm-59.8 10.5c-1.1 12.1-1.2 24.3-.5 36.4.1 2.4-3.6 2.6-3.8.2-.7-12.5-.5-24.9.6-37.4.2-2.4 3.9-1.6 3.7.8zm-4-3.9c-1.8 11.7-2.2 23.5-1.3 35.3.2 2.4-3.6 2.6-3.8.2-.9-12.1-.4-24.2 1.4-36.3.4-2.4 4-1.6 3.7.8zm-7.6-6.4c.6-2.3 4.3-1.5 3.7.8-3.2 12.3-2.7 25.9-1.6 38.5.2 2.4-3.5 2.6-3.8.2-1.1-12.9-1.6-26.9 1.7-39.5zM88.8 129c-1.1 12.1-1.2 24.3-.5 36.4.1 2.4-3.6 2.6-3.8.2-.7-12.5-.5-24.9.6-37.4.2-2.4 3.9-1.6 3.7.8zm-4.1-3.9c-1.8 11.7-2.2 23.5-1.3 35.3.2 2.4-3.6 2.6-3.8.2-.9-12.1-.4-24.2 1.4-36.3.4-2.4 4.1-1.6 3.7.8zm-7.5-6.4c.6-2.3 4.3-1.5 3.7.8-3.2 12.3-2.7 25.9-1.6 38.5.2 2.4-3.5 2.6-3.8.2-1.2-13-1.6-26.9 1.7-39.5zm38.6 12c1.1 12.5 1.3 24.9.6 37.4-.1 2.4-3.9 2.2-3.8-.2.7-12.1.6-24.3-.5-36.4-.2-2.4 3.5-3.2 3.7-.8zm4-3.9c1.8 12 2.3 24.1 1.4 36.3-.2 2.4-3.9 2.2-3.8-.2.9-11.8.4-23.6-1.3-35.3-.3-2.4 3.4-3.2 3.7-.8zm5.6 33.8c-.2 2.4-4 2.2-3.8-.2 1.1-12.6 1.6-26.1-1.6-38.5-.6-2.3 3.1-3.1 3.7-.8 3.3 12.7 2.9 26.7 1.7 39.5z" fill="#2a232b" stroke-width="none" opacity="1" stroke="none"></path><path id="SvgjsPath13392" d="M135.2 110.9c-.5-1.5-1.9-1.9-3.1-1.5-1.1.3-2 1.4-1.5 2.8 2.2 7 3.2 14.6 3.6 22-.5-5.9-1.4-11.7-2.6-17.5-.2-.8-.6-1.4-1.4-1.6-.8-.3-1.8-.1-2.5.6-.7.6-.9 1.4-.8 2.3.1.6.2 1.3.3 1.9-.5-.6-1.2-.8-1.9-.7-1.3.2-2.5 1.3-2.3 2.9 1.6 11.8 2.4 24 2.3 36.2 0 .9.4 1.6 1.1 2 .4.2.8.3 1.3.3.4 0 .9-.1 1.3-.3.7-.4 1.1-1.1 1.1-2v-4.4c.3.9 1.2 1.4 2.1 1.4h.1c1.2 0 2.4-.8 2.4-2.3v-.9c.4.4 1 .6 1.5.6h.1c1.2 0 2.4-.8 2.4-2.3.6-12.3.6-26.6-3.5-39.5zm-6.6 48.5c-.5.3-1.1.3-1.6 0-.3-.2-.6-.5-.6-1.1.1-12.3-.7-24.6-2.3-36.4-.2-1.1.7-1.7 1.4-1.8h.2c.4 0 .9.1 1 .9 1.7 12.4 2.5 25 2.4 37.2.1.7-.2 1.1-.5 1.2zm-.1-32.8c1 7.2 1.6 14.6 1.6 22-.2-7.3-.7-14.6-1.6-22zm5.3 26.4c0 .9-.7 1.3-1.4 1.3-.6 0-1.3-.4-1.3-1.3.3-11.9-.8-23.8-3.1-35.3-.1-.7.2-1.1.4-1.3.3-.3.7-.4 1.1-.4.1 0 .3 0 .4.1.4.1.6.4.7.9 2.4 11.9 3.5 24 3.2 36zm4.1-2.6c0 .9-.8 1.3-1.5 1.3-.6 0-1.3-.4-1.2-1.3.5-12.1.4-26.1-3.6-38.5-.3-.9.3-1.4.9-1.6.2-.1.3-.1.5-.1.5 0 1.1.3 1.3 1 4 12.7 4 27 3.6 39.2zm-76.8.4c.1 1.5 1.4 2.2 2.6 2.2h.1c.5-.1 1.1-.3 1.5-.6 0 .3 0 .6.1.9.1 1.5 1.3 2.2 2.5 2.2h.1c.9-.1 1.8-.6 2.1-1.6.1 1.5.1 2.9.2 4.4.1.9.5 1.6 1.2 1.9.4.2.8.3 1.3.3.4 0 .9-.2 1.3-.4.7-.4 1-1.2 1-2-.7-12.2-.5-24.5.5-36.3.1-1.6-1.1-2.7-2.4-2.8-.7-.1-1.4.2-1.9.8.1-.6.2-1.3.3-1.9.1-.9-.2-1.7-.9-2.2-.7-.6-1.7-.7-2.5-.4-.7.3-1.2.9-1.3 1.7-.9 5.8-1.4 11.7-1.7 17.6 0-7.4.6-15 2.5-22.2.4-1.5-.6-2.5-1.6-2.8-1.2-.3-2.6.2-3 1.7-3.7 12.9-3.1 27.2-2 39.5zm10.1 7.4c-.7-12.2-.5-24.8.6-37.3.1-.8.6-1 1-1h.2c.7.1 1.6.6 1.5 1.7-1 11.9-1.2 24.2-.5 36.5 0 .6-.3 1-.5 1.1-.4.3-1.1.3-1.5.1-.4-.2-.8-.5-.8-1.1zm-1.4-9.6c-.3-7.4-.2-14.8.5-22.1-.5 7.4-.6 14.8-.5 22.1zM67.7 117c.1-.5.3-.8.7-.9.1-.1.3-.1.4-.1.4 0 .8.1 1.1.4.3.2.6.6.5 1.3-1.7 11.6-2.2 23.5-1.3 35.4.1.9-.6 1.3-1.2 1.4-.7 0-1.4-.3-1.5-1.2-1-12.2-.5-24.3 1.3-36.3zm-3.9-5.6c.2-.7.7-1 1.2-1 .2 0 .3 0 .5.1.6.2 1.2.6.9 1.5-3.3 12.6-2.7 26.6-1.7 38.6.1.9-.6 1.3-1.2 1.4-.7 0-1.5-.3-1.6-1.2-.8-12.3-1.5-26.5 1.9-39.4zM75 158.2c.1 1.5 1.4 2.2 2.6 2.2h.1c.5-.1 1.1-.3 1.5-.6 0 .3 0 .6.1.9.1 1.5 1.3 2.2 2.5 2.2h.1c.9-.1 1.8-.6 2.1-1.6.1 1.5.1 2.9.2 4.4.1.9.5 1.6 1.2 1.9.4.2.8.3 1.3.3.4 0 .9-.2 1.3-.4.7-.4 1-1.2 1-2-.7-12.2-.5-24.5.5-36.3.1-1.6-1.1-2.7-2.4-2.8-.7-.1-1.4.2-1.9.8.1-.6.2-1.3.3-1.9.1-.9-.2-1.7-.9-2.2-.7-.6-1.7-.7-2.5-.4-.7.3-1.2.9-1.3 1.7-.9 5.8-1.4 11.7-1.7 17.6 0-7.4.6-15.1 2.5-22.2.4-1.5-.6-2.5-1.6-2.8-1.2-.3-2.6.2-3 1.7-3.7 12.9-3.1 27.2-2 39.5zm10 7.4c-.7-12.2-.5-24.8.6-37.3.1-.8.6-1 1-1h.2c.7.1 1.6.6 1.5 1.7-1 11.9-1.2 24.2-.5 36.5 0 .6-.3 1-.5 1.1-.4.3-1.1.3-1.5.1-.4-.2-.7-.5-.8-1.1zm-1.4-9.6c-.3-7.4-.2-14.8.5-22.1-.4 7.4-.6 14.7-.5 22.1zm-2-31.6c.1-.5.3-.8.7-.9.1-.1.3-.1.4-.1.4 0 .8.1 1.1.4.3.2.6.6.5 1.3-1.7 11.6-2.2 23.5-1.3 35.4.1.9-.6 1.3-1.2 1.4-.7 0-1.4-.3-1.5-1.2-1-12.2-.5-24.3 1.3-36.3zm-3.9-5.6c.2-.7.7-1 1.2-1 .2 0 .3 0 .5.1.6.2 1.2.6.9 1.5-3.2 12.6-2.6 26.6-1.6 38.6.1.9-.6 1.3-1.2 1.4-.7 0-1.5-.3-1.6-1.2-1-12.3-1.6-26.5 1.8-39.4zm46.5 2.3c-.4-1.5-1.8-2-3-1.7-1.1.3-2 1.3-1.6 2.8 1.9 7.1 2.5 14.7 2.5 22.2-.2-5.9-.8-11.8-1.7-17.6-.1-.8-.6-1.4-1.3-1.7-.8-.3-1.8-.2-2.5.4-.7.5-1 1.4-.9 2.2.1.6.2 1.3.3 1.9-.4-.6-1.2-.9-1.9-.8-1.3.1-2.6 1.2-2.4 2.8 1 11.9 1.2 24.1.5 36.3-.1.9.3 1.6 1 2 .4.2.8.4 1.3.4.4 0 .9-.1 1.3-.3.7-.4 1.2-1.1 1.2-1.9.1-1.5.2-2.9.2-4.4.3.9 1.2 1.5 2.1 1.6h.1c1.2.1 2.4-.7 2.5-2.2 0-.3 0-.6.1-.9.4.4.9.6 1.5.6h.1c1.2.1 2.4-.7 2.6-2.2.8-12.2 1.4-26.5-2-39.5zm-9 48c-.5.2-1.1.2-1.5-.1-.3-.2-.6-.5-.5-1.1.7-12.3.5-24.6-.5-36.5-.1-1.1.8-1.6 1.5-1.7h.2c.4 0 .9.2 1 1 1.1 12.5 1.3 25.1.6 37.3-.1.7-.5 1-.8 1.1zm1.6-32.7c.7 7.3.8 14.7.5 22.1.1-7.3-.1-14.7-.5-22.1zm4 26.6c-.1.9-.8 1.3-1.5 1.2-.6 0-1.3-.4-1.2-1.4.9-11.9.4-23.8-1.3-35.4-.1-.7.2-1.1.5-1.3.3-.2.7-.4 1.1-.4.1 0 .3 0 .4.1.4.2.6.5.7.9 1.7 12.2 2.1 24.3 1.3 36.3zm4.1-2.4c-.1.9-.9 1.3-1.6 1.2-.6-.1-1.3-.4-1.2-1.4 1.1-12 1.7-26-1.7-38.6-.2-.9.4-1.4.9-1.5.2 0 .3-.1.5-.1.5 0 1.1.3 1.2 1 3.6 13 3 27.2 1.9 39.4z" fill="#1b141c" stroke-width="none" opacity="1" stroke="none"></path><path id="SvgjsPath13393" d="M64.8 148.8c-.1 0-.1-.1-.2-.1.1-.1.1-.3 0-.4-.6-.6-1.3-1-1.8-1.7s-.6-1.4-1-2.1c-.1-.2-.5-.2-.5.1-.2 1.3.8 3.1 2.1 3.9-.5 0-.9 0-1.3.1-.1 0-.2.1-.2.2v.2c.1.1.2.2.3.2.4 0 .8-.1 1.2-.1s.8.2 1.1.2c.4 0 .6-.3.3-.5zm-.7-4.7-1.2-1.2c-.4-.4-1.1-1-.9-1.6.1-.2-.3-.5-.5-.3-1.2 1.3 1.3 3.1 2.3 3.4.3.1.5-.2.3-.3zm-1.1-4.4c-.3-.6-.6-1-.6-1.7 0-.4-.5-.4-.5 0 0 .7.2 1.5.8 2 .1.2.5 0 .3-.3zm.9-4.6c-.4-.5-1-.9-1.3-1.6-.4-.6-.6-1.4-.6-2.1 0-.3-.4-.4-.5-.1-.3 1.6.4 3.8 2.1 4.3.4 0 .5-.3.3-.5zm-.1-4c-.2-.4-.6-.7-.8-1.1-.3-.4-.4-.9-.5-1.4 0-.3-.5-.3-.5 0 0 1 .4 2.5 1.5 2.8.2.1.4-.1.3-.3zm-1.3-6.4c0-.4-.7-.4-.7 0 0 .9.2 2 .8 2.6.2.2.4 0 .4-.2-.2-.8-.5-1.5-.5-2.4zm6.3 27.5c-1.1-.6-2.2-1.4-2.4-2.7 0-.2-.4-.2-.4.1 0 1.4 1.1 3.2 2.7 3 .2 0 .3-.3.1-.4zm-.5-3.2c-.2-.4-.7-.7-.9-1-.3-.4-.5-.9-.6-1.4-.1-.3-.5-.2-.5.1 0 1 .6 2.7 1.8 2.8.1 0 .3-.3.2-.5zm-.7-3c-.5-.8-1-1.5-1.1-2.5 0-.3-.5-.3-.5 0 0 1 .3 2.1 1.1 2.8.3.2.7 0 .5-.3zm.5-5.7c-.7-.6-1.4-1.3-1.5-2.3 0-.3-.4-.3-.4 0 0 1.1.6 2.4 1.8 2.6 0 .1.2-.1.1-.3zm-.2-2.9c-.2-.4-.6-.8-.8-1.2-.2-.4-.4-1-.5-1.5-.1-.3-.5-.2-.5.1 0 1.1.4 2.6 1.5 3 .2.1.4-.2.3-.4zm3.6 17.6c-.4.1-.3.7.1.7s.8 0 1.2.2c.3.1.6.4.9.4.2 0 .3-.2.3-.4-.3-1-1.8-1.1-2.5-.9zm2-2c-.3-.3-.7-.5-1.1-.8-.4-.3-.7-.6-.9-1.1-.2-.3-.5 0-.4.2.4.9 1.2 2 2.2 2.1.2 0 .4-.3.2-.4zm-.4-2.1c-.2-.4-.4-.7-.7-1.1-.3-.4-.7-.8-.9-1.3-.2-.3-.7 0-.5.3.4.8 1 1.9 1.9 2.3.1.2.3 0 .2-.2zm.1-2.3c-.3-.4-.8-.7-1.1-1.1-.3-.5-.6-1-.6-1.6 0-.4-.6-.4-.6 0 0 .7.1 1.4.5 2 .3.5.9 1.1 1.5 1 .3.1.4-.1.3-.3zm-.7-4c-.1-.4-.4-.7-.6-1-.2-.4-.4-.8-.5-1.2-.1-.3-.7-.3-.6.1.1.8.5 2.2 1.4 2.5.1 0 .4-.2.3-.4zm.3-5.7c-.2-.4-.5-.6-.7-.9-.2-.3-.5-.7-.6-1.1-.1-.3-.5-.2-.5.1.2.8.6 2 1.5 2.3.2.1.3-.2.3-.4zm5.9 17.3c-.1 0-.1-.1-.2-.1.1-.1.1-.3 0-.4-.6-.6-1.3-1-1.8-1.7s-.6-1.4-1-2.1c-.1-.2-.4-.2-.5.1-.2 1.3.8 3.1 2.1 3.9-.4 0-.9 0-1.3.1-.1 0-.2.1-.2.2v.2c.1.1.2.2.3.2.4 0 .8-.1 1.2-.1s.8.2 1.2.2c.2 0 .4-.3.2-.5zm-.7-4.8-1.2-1.2c-.4-.4-1.1-1-.9-1.6.1-.2-.3-.5-.4-.3-1.2 1.3 1.3 3.1 2.3 3.4.2.2.3-.1.2-.3zm-1.1-4.3c-.3-.6-.6-1-.6-1.7 0-.4-.6-.4-.6 0 0 .7.2 1.5.8 2 .2.2.5 0 .4-.3zm.9-4.6c-.4-.5-1-.9-1.3-1.6-.4-.6-.6-1.4-.6-2.1 0-.3-.4-.4-.5-.1-.3 1.6.4 3.8 2.1 4.3.3 0 .5-.3.3-.5zm-.2-4c-.2-.4-.6-.7-.8-1.1-.3-.4-.4-.9-.5-1.4 0-.3-.5-.3-.4 0 0 1 .4 2.5 1.5 2.8.2.1.3-.1.2-.3zm-1.3-6.4c0-.4-.7-.4-.7 0 0 .9.2 2 .8 2.6.2.2.4 0 .4-.2-.1-.8-.5-1.5-.5-2.4zm6.3 27.5c-1.1-.6-2.2-1.4-2.4-2.7 0-.2-.4-.2-.4.1 0 1.4 1.1 3.2 2.7 3 .2-.1.3-.3.1-.4zm-.5-3.2c-.2-.4-.7-.7-.9-1-.3-.4-.5-.9-.6-1.4-.1-.3-.5-.2-.5.1 0 1 .6 2.7 1.8 2.8.2 0 .3-.3.2-.5zm-.6-3c-.5-.8-1-1.5-1.1-2.5 0-.3-.5-.3-.5 0 0 1 .3 2.1 1.1 2.8.3.2.6 0 .5-.3zm.4-5.7c-.7-.6-1.4-1.3-1.5-2.3 0-.3-.4-.3-.4 0 0 1.1.6 2.4 1.8 2.6.1.1.3-.1.1-.3zm-.2-2.9c-.2-.4-.6-.8-.8-1.2-.2-.4-.4-1-.5-1.5-.1-.3-.5-.2-.5.1 0 1.1.4 2.6 1.5 3 .3.1.4-.3.3-.4zm3.6 17.6c-.4.1-.3.7.1.7s.8 0 1.2.2c.3.1.6.4.9.4.2 0 .3-.2.3-.4-.2-1-1.7-1.1-2.5-.9zm2-2c-.3-.3-.7-.5-1.1-.8-.4-.3-.7-.6-.9-1.1-.2-.3-.5 0-.4.2.4.9 1.2 2 2.2 2.1.3 0 .4-.3.2-.4zm-.3-2.1c-.2-.4-.4-.7-.7-1.1-.3-.4-.7-.8-.9-1.3-.2-.3-.7 0-.5.3.4.8 1 1.9 1.9 2.3 0 .2.2 0 .2-.2zm.1-2.3c-.3-.4-.8-.7-1.1-1.1-.3-.5-.6-1-.6-1.6 0-.4-.6-.4-.6 0 0 .7.1 1.4.5 2 .3.5.9 1.1 1.5 1 .2.1.4-.1.3-.3zm-.8-4c-.1-.4-.4-.7-.6-1-.2-.4-.4-.8-.5-1.2-.1-.3-.7-.3-.6.1.1.8.5 2.2 1.4 2.5.2 0 .4-.2.3-.4zm.3-5.7c-.2-.4-.5-.6-.7-.9-.2-.3-.5-.7-.6-1.1-.1-.3-.5-.2-.5.1.2.8.6 2 1.5 2.3.2.1.4-.2.3-.4zm35.8 12.9c.4 0 .8-.1 1.2-.2s.8 0 1.2.1c.1 0 .2-.1.3-.2v-.2c0-.1-.1-.2-.2-.2-.4-.1-.8-.2-1.3-.1 1.3-.8 2.3-2.6 2.1-3.9 0-.2-.4-.3-.5-.1-.3.7-.5 1.5-1 2.1-.5.7-1.2 1.1-1.8 1.7-.1.1-.1.3 0 .4-.1 0-.1.1-.2.1-.2.2 0 .5.2.5zm.8-4.9c1.1-.3 3.5-2.2 2.3-3.4-.2-.2-.5 0-.4.3.2.6-.5 1.2-.9 1.6L123 154c-.2.1-.1.4.2.3zm1.2-4.4c.6-.5.8-1.3.8-2 0-.4-.5-.4-.6 0-.1.7-.3 1.1-.6 1.7-.1.3.2.5.4.3zm-1-4.4c1.7-.4 2.4-2.7 2.1-4.3-.1-.3-.5-.2-.5.1 0 .7-.2 1.5-.6 2.1-.3.6-.9 1-1.3 1.6-.2.2 0 .6.3.5zm.1-4.1c1.1-.4 1.5-1.9 1.5-2.8 0-.3-.4-.3-.4 0-.1.5-.2 1-.5 1.4-.2.4-.6.7-.8 1.1-.1.1 0 .3.2.3zm.5-4.4c-.1.2.2.4.4.2.7-.7.8-1.7.8-2.6 0-.4-.6-.4-.7 0 .1.9-.3 1.6-.5 2.4zm-5.6 25.5c1.6.2 2.7-1.6 2.7-3 0-.2-.4-.3-.4-.1-.2 1.3-1.3 2.1-2.4 2.7-.2.1-.1.3.1.4zm.7-3.1c1.2-.1 1.8-1.8 1.8-2.8 0-.3-.5-.4-.5-.1-.1.5-.3 1-.6 1.4-.3.4-.7.6-.9 1-.2.2-.1.5.2.5zm.8-3.2c.8-.7 1.1-1.8 1.1-2.8 0-.3-.4-.3-.5 0-.1.9-.6 1.7-1.1 2.5-.1.3.2.5.5.3zm-.7-5.7c1.2-.2 1.8-1.5 1.8-2.6 0-.3-.4-.3-.4 0-.1 1-.8 1.7-1.5 2.3-.3.2-.1.4.1.3zm.3-2.8c1.1-.5 1.6-1.9 1.5-3 0-.3-.5-.4-.5-.1-.1.5-.2 1-.5 1.5-.2.4-.6.8-.8 1.2-.1.2 0 .5.3.4zm-6.4 18.1c0 .2.1.4.3.4.4 0 .6-.2.9-.4.4-.2.8-.2 1.2-.2.4 0 .5-.6.1-.7-.8-.2-2.3-.1-2.5.9zm.7-2.5c1 0 1.8-1.2 2.2-2.1.1-.3-.2-.5-.4-.2-.2.4-.6.8-.9 1.1-.3.3-.8.5-1.1.8-.2.1-.1.5.2.4zm.5-2.2c.9-.4 1.5-1.5 1.9-2.3.2-.3-.3-.6-.5-.3-.3.4-.6.9-.9 1.3-.3.3-.6.6-.7 1.1-.2.1 0 .3.2.2zm-.2-2.2c.6.1 1.2-.6 1.5-1 .4-.6.6-1.3.5-2 0-.4-.6-.4-.6 0 0 .6-.2 1.1-.6 1.6-.3.4-.8.6-1.1 1.1 0 .1.1.3.3.3zm.8-4c.9-.2 1.3-1.7 1.4-2.5 0-.4-.5-.4-.6-.1-.1.4-.3.9-.5 1.2-.2.3-.5.6-.6 1-.1.2.1.4.3.4zm-.3-5.7c.9-.3 1.3-1.5 1.5-2.3.1-.3-.3-.4-.5-.1-.1.4-.4.8-.6 1.1-.2.3-.6.6-.7.9-.1.2.1.5.3.4zm14.9 7.4c-.6-.4-1.3-.6-1.8-1.1-.6-.5-1.1-1.1-1.3-1.8-.1-.3-.5-.2-.5.1.3 1.6 1.8 3.5 3.6 3.2.2.1.2-.2 0-.4zm-1.1-3.7c-.3-.4-.7-.6-1-1-.3-.4-.5-.9-.6-1.4-.1-.3-.6-.2-.5.1.1 1.1.8 2.6 2 2.7.1 0 .2-.3.1-.4zm-.3-3.2c-.2-.4-.6-.7-.9-1.1-.3-.4-.5-.9-.7-1.4-.1-.3-.6-.2-.5.1.2 1 .8 2.2 1.8 2.6.3.2.4 0 .3-.2zm1.1-6.4c-.7-.4-1.4-.7-2-1.3-.6-.6-1.1-1.3-1.4-2.1-.1-.2-.5-.2-.4.1.3 1.6 1.8 3.6 3.6 3.7.4.1.4-.3.2-.4zm-.9-3.7c-.4-.4-1-.6-1.4-1-.4-.5-.7-1.1-.9-1.7-.1-.2-.4-.2-.4.1.1 1.2 1 3.1 2.5 3.1.2 0 .3-.3.2-.5zm-1.4-3.2c-.5-.5-1-1-1.4-1.7-.1-.2-.4 0-.3.2.4.7.9 1.3 1.5 1.7.1.1.3-.1.2-.2zm-.1-5.2c-.1-.3-.3-.5-.5-.7-.1-.2-.3.1-.2.2.2.2.3.4.6.6.1.1.2 0 .1-.1zm6.7 19.9c-.4-.4-.9-.6-1.2-1.1-.3-.5-.5-1.1-.4-1.7 0-.2-.3-.2-.4-.1-.3 1.3.4 3.1 1.9 3.3.1 0 .2-.3.1-.4zm-.1-4.3c-.2-.3-.5-.6-.7-.9-.2-.3-.4-.6-.6-1-.1-.2-.5-.1-.4.2.3.7.7 1.6 1.4 2 .1.2.4-.1.3-.3zm-.1-6.2c-.4-.4-.8-.7-1.1-1.1-.4-.4-.6-1-.8-1.5-.1-.2-.4-.2-.4.1.1 1.2.8 2.6 2.1 3 .2 0 .4-.3.2-.5zm-.7-3.6c-.2-.3-.6-.6-.8-.9-.3-.4-.5-.8-.6-1.2-.1-.3-.5-.2-.5.1.1.9.6 2.1 1.6 2.4.2 0 .4-.2.3-.4zm-1.8-4.7c-.1-.2-.4 0-.3.2.2.4.4.9.7 1.3.1.1.3.1.3-.1-.2-.5-.4-.9-.7-1.4zm6.3 14.8c-.6-.6-1.1-1.2-1.1-2.2 0-.2-.4-.2-.4 0-.1.9.4 2.1 1.3 2.5.2.2.4-.1.2-.3zm.3-3.7c-.2-.4-.5-.7-.8-1.1-.2-.4-.4-.9-.6-1.3-.1-.2-.4-.2-.4.1.1 1 .4 2.2 1.3 2.8.4.1.7-.2.5-.5zm-.1-4.2c-.5-.9-1.1-1.6-1.4-2.6-.1-.3-.5-.1-.4.1.2 1 .7 2.1 1.5 2.7.1.3.4.1.3-.2zm.2-4.9c-.7-.4-1.4-.6-1.9-1.4-.1-.2-.5 0-.4.2.4.8 1.2 1.7 2.2 1.6.2 0 .2-.3.1-.4zm-.3-7.3c-.1-.3-.5-.2-.4.1.4 1.3.1 3.1-1.3 3.7-.2.1-.2.3 0 .4.8.2 1.4-.5 1.7-1.2.4-.9.4-2 0-3zm-.9.1c-.6 0-1.3.2-1.6-.6-.1-.3-.6-.2-.5.2.2.8 1.6 1.7 2.3.8.1-.2 0-.4-.2-.4zm-.9-5.7c-.1-.2-.3-.2-.4 0-.2.5-.5.9-1 .6-.2-.1-.4.3-.2.4.7.3 1.8-.2 1.6-1z" fill="#3a353a" stroke-width="none" opacity="1" stroke="none"></path></g></g><g id="svga-group-humanbody-back"><path id="SvgjsPath13242" d="M166.5 181.1c-10.9-6.6-27.6-8.4-35-12.1-4.9-2.5-9.1-4.7-8.9-17.8s1.9-42.4 1.9-42.4H75.4s1.6 29.4 1.9 42.4-4.2 15.6-8.9 17.8c-7.4 3.5-24.1 5.4-35 12.1-10.8 6.6-10 18.9-10 18.9v19.7h153.3V200c-.1 0 .7-12.3-10.2-18.9z" fill="#f0c7b1" stroke-width="none" opacity="1"></path></g><g id="svga-group-chinshadow-single"><path id="SvgjsPath13238" d="M77.2 155.9c6.9 8.3 13.3 15.4 17.2 14.8 0 0 4.4-.9 5.6-.9s5.6 1 5.6 1c3.9.6 10.2-6.5 17.2-14.8-.1-1.4-.2-3-.2-4.8.2-13.1 1.9-42.4 1.9-42.4H75.4s1.6 29.4 1.9 42.4c0 1.7 0 3.3-.1 4.7z" fill="#d19271" stroke-width="none" opacity="0.65"></path></g><g id="svga-group-humanbody-front"><path id="SvgjsPath13243" d="M78.7 156.8c.5 4.8 1.7 9.4 3.1 13.9.8 2.3 1.6 4.6 2.6 6.9.8 2 1.7 4.2 3.1 5.9.3.4 1 0 .9-.5-.5-2.2-1.6-4.3-2.4-6.4-.9-2.2-1.7-4.4-2.5-6.6-1.5-4.4-2.8-8.9-4.1-13.3-.2-.4-.8-.3-.7.1zm41.3-1c-1.3 8.2-3.9 16.1-5.4 24.2-.1.4.4.5.6.2 3.1-7.7 4.1-16.1 5.1-24.3-.1-.2-.3-.2-.3-.1zm-25.8 11.9c-.9 3.6 1.9 8.6 6.2 7.6.5-.1.4-.8 0-1-1.4-.5-2.9-.9-3.9-2.1-1.1-1.2-1.5-2.9-1.4-4.5 0-.4-.8-.5-.9 0z" fill="#d19271" stroke-width="none" opacity="1"></path><path id="SvgjsPath13244" d="M177.3 219.7c-.1-6.6-.3-13.1-.3-19.7l-.3-.3c.1 0 .1 0 .2.1s.1.2.1.1v-1.4c0-.5-.1-.9-.1-1.4-.1-.9-.3-1.9-.5-2.8-.5-1.8-1.1-3.6-2-5.3-1.7-3.4-4.4-6.2-7.7-8.1-3.6-2.2-7.6-3.8-11.6-5.1-4-1.3-8.1-2.4-12.1-3.5-4-1.2-8.1-2.2-11.8-4.2-1.9-1-3.6-2.1-4.8-3.6-1.2-1.6-1.9-3.5-2.3-5.5-.8-4-.4-8.2-.3-12.4l.7-12.6 1.5-25.2.1-1.4h-1.4c-8.2 0-16.4 0-24.6.1l-24.6.3h-.9l.1.9c.8 11.9 1.6 23.8 2.1 35.7.1 3 .3 6 .2 8.9-.1 2.9-.4 5.9-1.6 8.6-.6 1.3-1.4 2.5-2.4 3.5s-2.3 1.8-3.6 2.4c-2.6 1.3-5.4 2.2-8.3 3-5.8 1.5-11.6 2.8-17.3 4.7-2.8.9-5.7 2-8.4 3.4-1.3.7-2.7 1.4-4 2.4-1.3.9-2.4 1.9-3.5 3.1-2.1 2.3-3.6 5.2-4.5 8.1-.5 1.5-.8 3-1 4.6-.1.8-.1 1.6-.1 2.4v2.3l-.2 17.9v1.3h1.4l38.3.2c12.8.1 25.5.1 38.3 0 12.8-.1 25.6-.1 38.3-.3 12.8-.2 25.6-.5 38.3-.7h.6v-.5zm-77.2-1.6H61.8l-37 .2-.1-16.6v-2.2c0-.7 0-1.4.1-2.1.1-1.4.4-2.8.8-4.2.8-2.7 2.1-5.3 3.9-7.5.9-1.1 2-2.1 3.1-2.9 1.1-.9 2.4-1.6 3.7-2.3 2.6-1.4 5.3-2.5 8.1-3.5 5.6-2 11.4-3.4 17.1-5.1 2.9-.8 5.8-1.7 8.5-3.1 1.3-.7 2.7-1.5 3.8-2.6 1.1-1.1 2-2.4 2.6-3.9 1.2-2.9 1.5-5.9 1.6-8.9 0-3-.1-6-.2-9l-1.3-34.8 23.5.4c7.7.1 15.4.1 23.1.1-.4 7.9-.8 15.9-1.1 23.8-.2 4.2-.2 8.4-.3 12.6 0 4.2-.2 8.5.8 12.8.5 2.1 1.3 4.2 2.8 6 1.4 1.7 3.4 2.9 5.3 3.8 3.9 1.9 8 2.8 12.1 3.8s8.2 2 12.2 3.3c4 1.3 7.9 2.8 11.5 5 3.2 1.9 5.8 4.7 7.5 8 .9 1.6 1.5 3.4 1.9 5.2.2.9.4 1.8.4 2.7.1.5.1.9.1 1.4V200l-.3 19c-12.6-.2-25.1-.5-37.7-.7-12.7-.1-25.5-.1-38.2-.2z" fill="#c27b55" stroke-width="none" opacity="1"></path></g><g id="svga-group-clothes-single"><path id="SvgjsPath13123" d="M100.8 184.4c-1.1-3-8.2-7.8-13.2-10.6s-7-4.9-10-8.8c-1.8-3.6-1-8.9-1-8.9-.1-4.7-.6-9.5-.9-14.7-8.2-1.1-13.1 3.7-14 4.6-6.5 6.3-3.1 8.5-5.7 11.5-9.2 2.1-7.1 14.2-10.7 15-8.7 1.9-21.2 7-24.2 21 0 0-1.6 9.2-1.6 26.7h160.7c0-17.5-1.6-26.7-1.6-26.7-3.2-15.2-17.6-19-26.1-21.4-1.4-.6.2-5.2-2.5-10.5-1.4-2.7-3.9-6.5-9.3-7.8 0 0-1.2-6.6-5.4-9.9-4.2-3.3-11.2-2.5-11.2-2.5s-.3 14.1-.3 16.1c0 3.2-.2 4.9-1.6 6.6s-4.4 3.9-6.9 7.5-10.1 7.5-11.7 9c-1.4 1.4-2.8 3.8-2.8 3.8z" fill="#386e77" stroke-width="none" opacity="1"></path><path id="SvgjsPath13124" d="M105.6 187.4c-.6.6-1.7 3.4-1.8 5.7s1.8 11.5 2.1 13.4-1 7.4-1 8.5 2.8 2.8 3.1 1.7c.3-1.1 1.2-8.4.2-10.9s-2.2-10.1-2.2-11.6 1.1-5.6 1.6-6.5c0 0 .2-.8-.6-.9-.8-.1-1.4.6-1.4.6z" fill="#d6d6d6" stroke-width="none" opacity="1"></path><path id="SvgjsPath13125" d="m95.6 186.8.1-.2s1.8-1.3 1.9.9c0 0-1.2 2.8-1.2 4.8s2.2 11.9 2.5 14.1-2.7 10.4-3.1 10.5-2.1-.9-2.6-1.3c-.4-.4 2.5-6.9 2.8-9.9.3-2.9-.4-8.7-1.2-12.2-.8-3.5.4-5.9.8-6.6v-.1z" fill="#d6d6d6" stroke-width="none" opacity="1"></path><path id="SvgjsPath13126" d="M181.4 204.3c-.2-2.6-.4-5.2-.7-7.9l-.2-2-.1-1v-.3c0-.1 0-.2-.1-.3l-.1-.5c-.3-1.4-.7-2.7-1.2-4-1.1-2.6-2.6-5-4.4-7.1-1.9-2.1-4.1-3.8-6.5-5.2-4.6-2.7-9.6-4.2-14.5-5.5v-.1c-.1-.4-.1-.9-.1-1.4-.1-1-.1-2-.3-3.1-.3-2.1-1.1-4.2-2.1-6-1-1.8-2.4-3.6-4.1-4.9-1.5-1.2-3.2-2-5-2.6-.4-1.4-.8-2.8-1.4-4.1-.7-1.6-1.6-3.1-2.9-4.4-1.3-1.4-3.4-2.5-5-3-5.1-1.2-8.6-.4-8.6-.4s-1.2 9.6-2.9 22.5c0 0-3.9 4.9-5.3 6.8-.4.4-.7 1-1.1 1.4-.2.2-.3.4-.5.6l-.6.6c-.8.8-1.7 1.5-2.6 2.2-1.8 1.4-3.8 2.7-5.7 4-.5.3-1 .7-1.4 1.1-.5.4-.8.9-1.2 1.3-.4.5-.7.9-1 1.4l-.5.8-.2.4-.1.1-.2-.3-.3-.6c-.2-.4-.5-.7-.8-1l-1.8-1.8c-1.3-1.1-2.6-2.2-4-3.2s-2.8-1.9-4.2-2.8c-1.4-.9-2.9-1.7-4.2-2.7-2.7-2-4.5-4.6-6.6-7.1-1.1-1.3-1.7-3.5-1.9-4.9-.1-1 .6-10.8-.2-17.9 0-.4-.7-.9-5.6-1.1-5 .1-8.8 3.3-10.4 4.9-1.5 1.6-3.1 3.3-3.9 5.6-.4 1.1-.5 2.4-.7 3.4-.1.9-.3 1.4-.7 1.9-1.7.4-3.3 1.3-4.5 2.5-1.4 1.4-2.3 3-2.9 4.7-.7 1.7-1.1 3.4-1.5 4.9-.2.8-.5 1.5-.8 2.1-.1.3-.3.4-.4.5 0 0-.1 0-.1.1l-.6.1c-3.3.8-6.6 1.9-9.8 3.4-3.1 1.6-6 3.6-8.4 6.2-2.4 2.6-4.2 5.7-5.3 9-.3.8-.5 1.7-.7 2.5l-.1.7c0 .1 0 .2-.1.4v.3l-.2 1.3c-.2 1.7-.3 3.4-.5 5-.5 6.7-.6 13.4-.5 20.1 0 .4.1 1.3.5 1.3 13.4-.2 160.9.2 160.9.2.8 0 1.5-.7 1.5-1.5-.1-5-.2-10.3-.6-15.6zm-27.8-33.4zm-28.8-26.1c1 .6 4.7 2.5 6 5.1.1.8.2 1.8 0 2.6s-.6 1.5-1.1 2.3c-2.1 2.6-6.1 6.3-6.5 6.8 5.1-8.8 1.6-16.8 1.6-16.8zm-50.4 17.7c.9 1.4 4 4.3 5 5.5-.4-.3-3.9-3-4.3-3.2-1.2-.8-1.8-1.7-2.7-2.9-1.8-2.2-2.7-5.1-3.4-8-.3-1.4-.6-2.9.3-3.8 2.2-1.5 5.9-2 6.1-2.1.2 2.7-3.2 5.8-3.1 8.5-.1.3-.1.4-.1.7v.8c.1.5.2 1 .3 1.4.3.7 1.4 2.3 1.9 3.1zM48 171.8c.5-.9.8-1.8 1-2.6.5-1.7.8-3.2 1.4-4.7.5-1.5 1.3-2.8 2.3-3.8s2.3-1.7 3.7-2c.2 0 .3-.1.5-.2.1 1.1.2 2.2.4 3.3.3 1.7.7 3.4 1.4 5 .3.9.8 1.6 1.2 2.4.5.7 1 1.5 1.5 2.2 2.3 2.8 5.1 4.8 8.2 6.4 3.1 1.6 6.3 2.8 9.7 3.4-3.1-1.4-6.1-3-8.9-4.8-1.4-.9-2.8-1.8-4-2.9-1.3-1.1-2.5-2.2-3.4-3.4-.5-.6-1-1.3-1.4-1.9-.4-.7-.8-1.4-1.1-2.1-.7-1.4-1.1-3.1-1.6-4.6-.4-1.4-.7-2.9-.9-4.3.1-.2-.8-5.1 4.4-9.9 1.4-1.5 3-2.8 4.6-3.8 4.2-2.4 6.8-1.4 8.1-1.2.1 2 .2 3.1.3 5.1-.3.1-4.2 1-4.5 1.1-.7.3-1.5.5-2.2 1.1-.7.5-1.1 1.5-1.2 2.3-.1.9 0 1.7.1 2.5.4 3.1 1.3 6.3 3.3 8.9 1 1.3 2.3 2.4 3.6 3.2l3.9 2.4c1.3.8 2.6 1.5 3.9 2.2.8.6 1.5 1.2 2.3 1.7 1.4 1 2.9 1.8 4.4 2.6 1.4.8 2.9 1.7 4.3 2.6s2.8 1.9 4.1 2.9c.7.5 1.3 1.1 1.9 1.7.3.3.6.6.8.9.1.2.2.3.3.5l.2.3c.1.1.2.3.3.4 0 0 .1 0 .2-.1v-.1l.1-.1.1-.2.2-.4.5-.7c.3-.5.7-.9 1.1-1.4.4-.4.8-.9 1.2-1.2.4-.3.9-.7 1.4-1 2-1.2 4-2.4 5.9-3.8 1-.7 1.9-1.4 2.8-2.2.2-.2.4-.4.7-.6.2-.2.4-.4.6-.7.4-.5.7-.9 1.1-1.4 1.5-1.7 3.2-3.3 4.9-4.9l2.6-2.4c.7-.7 3.2-2.8 3.6-3.2 1.5-1.3 2.8-2.7 3.8-4.5 1-1.8.9-4 .2-6.1-1.1-2.4-5.6-5-6.9-5.8l-.1-2.5c.2.1 4.4-.9 8.1 1.4 2.5 1.6 4.6 5.3 5.3 6.7.6 1.4 1.1 2.9 1.4 4.4.1.5.5.9 1 1.1.1 0 .1 0 .2.1-.2 2-.6 4-1.4 5.8-.6 1.5-1.3 2.9-2.3 4-1 1.2-2.2 2.3-3.4 3.3-.6.5-1.2 1-1.8 1.6l-1.9 1.5c-1.3 1-2.6 2-3.9 2.9-2.6 1.9-5.3 3.8-7.9 5.8 3.1-1.3 6-2.8 8.8-4.5 2.8-1.7 5.6-3.6 8.1-5.8.6-.6 1.3-1.1 1.8-1.7l.9-.9.8-1c1.1-1.4 1.8-3 2.3-4.7.6-2 .8-4 .7-6.1 1.4.5 2.6 1.1 3.7 2.1 1.4 1.1 2.4 2.6 3.3 4.2.9 1.6 1.5 3.3 1.7 5.1.1.9.2 1.8.2 2.8 0 .5 0 1 .1 1.6 0 .3.1.6.2 1.1.1.2.2.5.4.7l.1.1-1.4 1.4c-.9.8-1.9 1.6-2.8 2.4-1.9 1.6-3.9 3.1-5.9 4.5-2 1.4-4 2.9-6.1 4-1.1.6-2.1 1.1-3.2 1.5-1.1.4-2.3.8-3.5 1.1-2.4.7-4.8 1.3-7.2 1.8-2.4.6-4.8 1.1-7.2 1.5l-3.6.6c-.6.1-1.2.1-1.7.1-.6 0-1.1-.2-1.6-.4l-.2-.1c.3-1.1.6-2.3 1-3.3.1-.2 0-.5-.1-.7s-.4-.3-.7-.3c-.5 0-.9.3-1.2.6.3-.4.8-.6 1.2-.6.2 0 .5.1.6.3.1.2.2.4.1.7-.5 1.2-.8 2.4-1.2 3.7-.3 1.2-.6 2.6-.4 3.9.2 2.6.6 5.1 1.1 7.7.1.6.3 1.3.4 1.9l.3.9c.1.3.2.6.2.9.2 1.2.2 2.5.2 3.8-.1 1.3-.2 2.6-.3 3.8-.1.6-.2 1.3-.3 1.9 0 .1-.1.3-.1.4-.1 0-.4 0-.6-.1-.5-.2-1-.6-1.3-1-.1-.1-.1-.2-.2-.3v-.3c0-.3.1-.6.1-.9.2-1.3.4-2.5.6-3.8.1-.6.2-1.3.2-1.9 0-.6 0-1.4-.1-2l-.8-3.8c-.5-2.5-1.1-5.1-1.4-7.6-.1-.6-.1-1.3-.1-1.9 0-.5.1-.9.2-1.4 0 0 .1-.4.1-.5.2-.6.3-1.2.6-1.9-.2.6-.4 1.2-.6 1.9 0 .1-.1.3-.1.4-1-.6-2.1-.9-3.3-1.1-1.3-.2-2.5-.3-3.8-.5.2-.8.4-1.5.7-2.2 0-.2-.1-.5-.2-.7s-.2-.4-.5-.6c-.5-.2-1 0-1.4.3.4-.2.9-.4 1.3-.2s.5.8.5 1.2c-.5 1.2-1 2.4-1.2 3.8-.1.6-.2 1.4-.1 2 .1.7.2 1.3.3 2 .4 2.6.9 5.2 1.4 7.8l.3 1.9c.1.6.2 1.3.2 1.9-.1 1.2-.4 2.5-.8 3.7-.4 1.2-.8 2.5-1.2 3.7-.2.6-.5 1.2-.7 1.8-.1.1-.1.2-.2.4-.2-.1-.4-.1-.7-.3-.3-.1-.6-.3-.8-.5-.1-.1-.2-.2-.4-.3l-.1-.1c0-.2.1-.5.2-.8l.3-.9 1.3-3.7c.4-1.3.8-2.5 1-3.9.2-1.4.1-2.7 0-4-.2-2.6-.7-5.2-1.2-7.8-.6-1.8-.6-3.9-.1-5.7h.1s0-.1-.1-.1c.2-.6.4-1.2.7-1.8-.3.5-.6 1.1-.8 1.7-.5-.6-.8-1.4-.6-1.9.2-.6.8-1 1.6-.9.7 0 1.4.4 2 .9.3.3.5.6.6 1 .1.3-.1.7-.5 1 .2 0 .5-.1.7-.3s.3-.5.3-.7c0-.5-.2-1-.5-1.4-.6-.8-1.5-1.4-2.5-1.5-.5 0-1.1.1-1.6.4s-.8.8-.8 1.4c-.1 1.1.6 1.8 1.4 2.2-.1.4-.2.7-.3 1.1l-5.5-.7c-2.6-.4-5.2-.6-7.8-1-2.6-.4-5.2-.8-7.7-1.3-1.3-.2-2.5-.5-3.7-.9-1.2-.3-2.4-.9-3.6-1.4-2.4-1-4.7-2.3-6.9-3.5-2.3-1.3-4.5-2.6-6.7-4-1.1-.7-2.2-1.4-3.2-2.2l-1.5-1.2-.6-.6c-.1-1 .1-1.3.3-1.6zm52 47.5-20.1.2-20.1.1c-13.2.1-26.3 0-39.5-.2.1-6.4.4-12.9 1.1-19.3.2-1.6.4-3.3.6-4.9l.2-1.2v-.3c0-.1 0-.2.1-.3l.1-.6c.2-.8.4-1.5.7-2.3 1.1-3 2.8-5.7 5-8s4.9-4.1 7.8-5.5c2.9-1.4 6-2.5 9.1-3.2l.6-.1c.4-.1.7-.2 1-.5.2-.1.3-.2.4-.4.5.8 1.2 1.4 1.9 2.1 1 .9 2 1.8 3 2.6 2.1 1.6 4.2 3.1 6.5 4.6 2.2 1.4 4.5 2.7 6.9 3.9 1.2.6 2.4 1.1 3.8 1.5 1.3.4 2.6.7 3.9 1 5.2 1 10.4 1.6 15.7 1.9 2.2.1 3.4.2 5.5.2-.1 1.2 0 2.5.2 3.7.5 2.6.8 5.2.9 7.8.1 1.3.1 2.6-.1 3.9-.2 1.2-.6 2.5-1 3.7l-1.3 3.7c-.1.3-.2.6-.3 1-.1.3-.2.6-.2 1.1v.3c0 .1.1.2.1.2l.1.1c.1.1.2.1.2.2.1.1.3.2.4.3.3.2.6.4.9.5.3.2.6.3 1.1.4h.4c.2-.1.2-.1.3-.2.1-.1.2-.2.2-.3.1-.2.2-.3.2-.5.3-.6.5-1.2.7-1.9.4-1.2.8-2.5 1.2-3.8.3-1.3.7-2.6.8-4 0-.8-.2-1.4-.3-2-.1-.6-.2-1.3-.4-1.9-.5-2.6-1.1-5.1-1.6-7.7-.1-.6-.2-1.3-.3-1.9-.1-.6-.1-1.3 0-1.9 0-.2.1-.4.1-.6 2.4.1 4.9-.1 7.2.7-.1.5-.2.9-.2 1.4-.1.6 0 1.3.1 1.9.3 2.6.7 5.1 1.1 7.7l.6 3.8c.2 1.2-.1 2.5-.3 3.7l-.7 3.8c-.1.3-.1.6-.1 1 0 .1 0 .5.1.7.1.2.2.4.3.5.5.6 1.1 1 1.7 1.3.3.1.7.3 1.3.2.3-.1.6-.4.7-.6.1-.2.1-.4.1-.5.1-.7.2-1.3.3-2 .2-1.3.2-2.6.3-3.9 0-1.3 0-2.6-.3-3.9-.1-.3-.2-.7-.3-1l-.3-.9c-.2-.6-.4-1.2-.5-1.9-.6-2.5-1.1-5-1.5-7.6-.2-1-.1-2.1.2-3.1.6.3 1.3.5 1.9.6.3.1.7.1 1 .1h1c1.3 0 2.5-.2 3.8-.3 5-.6 9.9-1.6 14.7-2.9 1.2-.4 2.4-.7 3.6-1.2 1.2-.4 2.4-1 3.5-1.7 2.2-1.3 4.2-2.8 6.1-4.4 1.9-1.6 3.8-3.2 5.6-5 .9-.9 1.8-1.8 2.6-2.8.4-.5.8-1 1.2-1.6.2.1.4.3.6.4.1 0 .1.1.2.1 5 1.4 9.9 2.9 14.2 5.5 4.3 2.5 7.7 6.2 9.6 10.7.4 1.1.8 2.3 1.1 3.5l.1.4v.4l.1.9.2 1.9c.3 2.6.5 5.1.7 7.7.3 4.7.5 9.4.5 14.1l-38.6.2c-13.2.2-26.6.4-40 .6zm4.7-30.4c-.3-.4-.4-.8-.4-1.1 0-.4.1-.7.3-1 .4-.5 1.2-.7 1.9-.6.7.1 1.5.5 1.8 1.1.2.3.2.6.1 1s-.4.7-.7 1.1c.4-.1.8-.4 1.1-.9.3-.4.3-1.1.1-1.6-.4-1-1.4-1.6-2.4-1.8-.5-.1-1-.1-1.5.1s-1 .5-1.2 1c-.2.4-.3 1-.2 1.5.3.6.7 1 1.1 1.2zM41 209.2c-.7-2.7-1.6-5.3-2.8-7.8-1.2-2.5-2.7-4.9-4.5-7-1.8-2.1-3.8-4.1-6.2-5.4 1.1.8 2.1 1.8 3 2.8 1 1 1.8 2 2.6 3.1 1.6 2.2 3 4.5 4.2 7 .6 1.2 1.2 2.4 1.6 3.7.5 1.2.9 2.6 1.4 3.8.4 1.3.7 2.6 1.1 3.9.3 1.3.6 2.7.9 4-.1-1.4-.3-2.7-.5-4.1-.2-1.3-.4-2.6-.8-4zm125.6-13.9c-1.8 1.9-3.3 4.1-4.5 6.4-1.2 2.3-2.2 4.8-3 7.3-.4 1.2-.6 2.5-1 3.8l-.6 3.9c.4-1.2.7-2.5 1.1-3.7.4-1.2.8-2.5 1.2-3.7.2-.6.5-1.2.7-1.8s.5-1.2.8-1.8c.5-1.2 1.1-2.3 1.7-3.5 1.2-2.2 2.6-4.4 4.2-6.4.8-1 1.7-1.9 2.6-2.9.9-.9 1.9-1.8 3-2.4-2.4 1.1-4.4 2.9-6.2 4.8z" fill="#184f58" stroke-width="none" opacity="1"></path></g><g id="svga-group-head" transform="matrix(1,0,0,1,0,0)"><g id="svga-group-ears-left-move" transform="matrix(1,0,0,1,0,0)"><g id="svga-group-ears-left"><path id="SvgjsPath13139" d="M61.3 90s-2.5-2.4-5.4-3.5-6.1.7-7.1 3.7c-1 2.9 1.3 15.1 5 19.5s6.2 4.8 8.7 2.5c2.5-2.3 7-10.8-1.2-22.2z" fill="#f0c7b1" stroke-width="none" opacity="1"></path><path id="SvgjsPath13140" d="M62.6 91.8c.4.6.8 1.3 1.2 1.9.4.6.7 1.4 1.1 2 .3.7.6 1.4.9 2.2.2.8.5 1.5.6 2.4.1.4.2.8.2 1.2l.1 1.2c0 1.7-.2 3.4-.7 4.9-.5 1.6-1.2 3-2.2 4.2-.2.3-.5.6-.8.8-.3.2-.6.5-.9.7-.6.4-1.3.7-2.1.8-.7.1-1.5 0-2.2-.3s-1.3-.7-1.8-1.2c-.6-.5-1.1-1-1.6-1.6s-.9-1.1-1.4-1.8c-1.7-2.6-2.6-5.7-3.4-8.7-.4-1.5-.8-3-1.1-4.6s-.6-3.2-.5-4.9c0-.4.1-.9.2-1.3.1-.2.1-.4.2-.6l.3-.6c.4-.7.9-1.3 1.5-1.8 1.2-1 2.6-1.4 4-1.2.7.1 1.4.3 2 .6.6.3 1.2.7 1.8 1.1 1.2.8 2.3 1.6 3.3 2.6l1.3 2zm-4.7-4.1c-.6-.3-1.2-.6-1.8-.8-.6-.2-1.2-.3-1.8-.3-1.2.1-2.3.6-3.3 1.4-.5.4-.9.9-1.2 1.5-.2.3-.3.6-.4.9-.1.3-.2.6-.2.9-.2 1.4-.1 3 .1 4.6.2 1.5.4 3.1.8 4.6.8 3 1.9 6 3.6 8.2.9 1.1 1.9 2.1 3 2.9s2.2 1.3 3.3 1.1c.5-.1 1.1-.3 1.6-.7.5-.4 1-.8 1.4-1.3.8-1 1.5-2.3 1.9-3.7.5-1.4.7-2.8.7-4.3s-.2-3-.4-4.5c-.6-3-2-5.8-3.7-8.2-1.3-.9-2.4-1.7-3.6-2.3z" fill="#e1ac8f" stroke-width="none" opacity="1"></path><path id="SvgjsPath13141" d="M52.6 89.6c3.3.6 5.4 6.1 6 9.8.1.1.1.2.2.3.4.6-.4 1.2-.8.6-.5-.8-1-1.6-1.8-1.9-1.4-.5-2.1 1.1-1.8 2.6.4 1.9 1.6 3 2.6 4.4.1.1 0 .3-.1.2-1.7-1-4.3-4.8-3.1-7.2.9-1.7 2.3-1.4 3.4-.4-.8-2.1-1.4-4.3-3-5.9-.5-.5-1.5-1.4-2.2-1.3-1.3.2-1.3 2.1-1.3 3.4-.1 1.7.1 3.4.4 5 0 .2-.2.2-.3.1-.7-2.4-2-10.4 1.8-9.7z" fill="#d19271" stroke-width="none" opacity="1"></path></g></g><g id="svga-group-ears-right-move" transform="matrix(1,0,0,1,0,0)"><g id="svga-group-ears-right"><path id="SvgjsPath13142" d="M138.7 90s2.5-2.4 5.4-3.5 6.1.7 7.1 3.7c1 2.9-1.3 15.1-5 19.5s-6.2 4.8-8.7 2.5c-2.5-2.3-7-10.8 1.2-22.2z" fill="#f0c7b1" stroke-width="none" opacity="1"></path><path id="SvgjsPath13143" d="M138.6 89.9c1.1-1 2.2-1.8 3.3-2.6.6-.4 1.2-.7 1.8-1.1.6-.3 1.3-.6 2-.6 1.4-.2 2.8.3 4 1.2.6.5 1.1 1.1 1.5 1.8l.3.6c.1.2.2.4.2.6.1.4.2.9.2 1.3.1 1.7-.2 3.3-.5 4.9s-.7 3.1-1.1 4.6c-.9 3-1.8 6-3.4 8.7-.4.7-.9 1.2-1.4 1.8-.5.6-1 1.1-1.6 1.6s-1.2.9-1.8 1.2c-.7.3-1.4.4-2.2.3-.7-.1-1.4-.4-2.1-.8-.3-.2-.6-.4-.9-.7-.3-.3-.6-.5-.8-.8-1-1.2-1.7-2.6-2.2-4.2s-.7-3.3-.7-4.9l.1-1.2c0-.4.1-.8.2-1.2.1-.8.4-1.6.6-2.4.3-.7.6-1.5.9-2.2.4-.7.7-1.4 1.1-2 .4-.6.8-1.3 1.2-1.9l1.3-2zm.1.1c-1.7 2.4-3 5.2-3.7 8.2-.3 1.5-.5 3-.4 4.5s.3 2.9.7 4.3 1.1 2.6 1.9 3.7c.4.5.8 1 1.4 1.3.5.4 1 .6 1.6.7 1.1.2 2.2-.3 3.3-1.1 1-.8 2.1-1.8 3-2.9 1.7-2.3 2.8-5.2 3.6-8.2.4-1.5.6-3.1.8-4.6s.3-3.1.1-4.6c0-.4-.1-.6-.2-.9-.1-.3-.3-.6-.4-.9-.3-.6-.7-1-1.2-1.5-.9-.8-2.1-1.3-3.3-1.4-.6 0-1.2.1-1.8.3-.6.2-1.2.5-1.8.8-1.4.6-2.5 1.4-3.6 2.3z" fill="#e1ac8f" stroke-width="none" opacity="1"></path><path id="SvgjsPath13144" d="M147.4 89.6c-3.3.6-5.4 6.1-6 9.8-.1.1-.1.2-.2.3-.4.6.4 1.2.8.6.5-.8 1-1.6 1.8-1.9 1.4-.5 2.1 1.1 1.8 2.6-.4 1.9-1.6 3-2.6 4.4-.1.1 0 .3.1.2 1.7-1 4.3-4.8 3.1-7.2-.9-1.7-2.3-1.4-3.4-.4.8-2.1 1.4-4.3 3-5.9.5-.5 1.5-1.4 2.2-1.3 1.3.2 1.3 2.1 1.3 3.4.1 1.7-.1 3.4-.4 5 0 .2.2.2.3.1.7-2.4 2-10.4-1.8-9.7z" fill="#d19271" stroke-width="none" opacity="1"></path></g></g><g id="svga-group-faceshape-wrap"><g id="svga-group-faceshape-single"><path id="SvgjsPath13223" d="M143.2 82v-.3c-1.3-29.9-20.7-46.4-43.2-46.4S58.1 51.7 56.8 81.7v.3c0 2 0 17.7 1.7 28.4 1.8 11.7 5.7 15.8 14.3 26.1s16.9 19.8 21.6 19.2c0 0 4.4-.9 5.6-.9s5.6.9 5.6.9c4.7.7 13.1-8.8 21.6-19.2s12.5-14.4 14.3-26.1c1.6-10.8 1.7-26.4 1.7-28.4z" fill="#f0c7b1" stroke-width="none" opacity="1"></path><path id="SvgjsPath13224" d="M105.6 155.7c4.7.7 13.1-8.8 21.6-19.2s12.5-14.4 14.3-26.1c1.6-10.8 1.7-26.4 1.7-28.4v-.3c-1.3-29.9-20.7-46.4-43.2-46.4S58.1 51.7 56.8 81.7v.3c0 2 0 17.7 1.7 28.4 1.8 11.7 5.7 15.8 14.3 26.1s16.9 19.8 21.6 19.2c0 0 4.4-.9 5.6-.9s5.6.9 5.6.9zm-10.5-2.9c-1.1.2-2.2.1-3.2-.5-2.9-1.6-5.8-5.1-7.1-6.5-3.2-3.4-6.3-6.1-9.4-9.8s-6.4-7.2-9.1-10.9c-2.8-3.7-4.7-7.8-5.7-12.3-1.1-4.5-1.7-9.3-2.1-14.1-.4-4.8-.7-9.6-.8-14.3-.2-9.5 1.8-19.1 6.7-27.3C69.1 49 76.9 43 85.5 40c13.2-4.2 22.5-1.8 26.9-.5 8.8 2.4 16.7 8.1 22.1 15.8s8.1 17.4 8.5 26.9c-.1 8.3-.6 16.7-1.9 24.9-.3 2.1-.7 4.1-1.2 6.1s-1.2 3.9-2 5.7c-1.6 3.6-4.1 6.8-6.8 9.9-1.3 1.6-8.2 9.5-8.2 9.5-2.7 3.1-5.4 5.4-8.2 8.3-1.4 1.5-5.7 5.5-6.5 5.9-2.1 1-4 .5-4 .5-1-.2-4.4-1.1-9.1-.2z" fill="#c27b55" stroke-width="none" opacity="1"></path></g></g><g id="svga-group-mouth-single-move" transform="matrix(1,0,0,1,0,0)"><g id="svga-group-mouth-single"><path id="SvgjsPath13307" d="M88.41 126.92c1.99 3.72 6.55 5.56 10.64 5.71 4.32.17 10.29-1.51 13.17-4.89.35-.41-.09-.98-.59-.82-1.89.64-3.52 1.88-5.35 2.66-2.01.86-4.21 1.45-6.42 1.57-4.41.23-7.92-1.55-10.92-4.61-.23-.22-.69.09-.53.38z" fill="#e1ac8f" stroke-width="none" opacity="1" transform="translate(0 2)"></path><path id="SvgjsPath13308" d="M96.23 130.28c3.55.91 9.28.24 11.77-2.7.21-.25.01-.77-.37-.68-1.75.39-3.29 1.35-5 1.85-2.09.61-4.21.75-6.39.94-.34.03-.33.5-.01.59z" fill="#f8d5c3" stroke-width="none" opacity="1" transform="translate(0 2)"></path><path id="SvgjsPath13309" d="M94.82 121.9c-1.73-.21-2.43-.06-4.11.75s-2.5.96-3.93.56c-1.5-.42-2.02-2.2-2.02-2.2-.52 0-.65 1.62.65 2.77s5.54 1.43 8.33 1.32c3.47-.13 5.4-.17 5.4-.17h1.36s1.92.04 5.4.17c2.79.1 7.04-.17 8.33-1.32s1.17-2.77.65-2.77c0 0-.52 1.78-2.02 2.2-1.44.4-2.25.25-3.93-.56s-2.38-.96-4.11-.75c-.86.1-3.06.8-5.12.8-1.42 0-4.02-.69-4.88-.8z" fill="#da7c87" stroke-width="none" opacity="1" transform="translate(0 2)"></path></g></g><g id="svga-group-eyes-left-move" transform="matrix(1,0,0,1,0,0)"><g id="svga-group-eyes-left"><g id="svga-group-eyesback-left"><path id="SvgjsPath13179" d="M90.2 96.4s-.9.8-3.3 1.1-8.7 1.1-13.3-.2c-4.6-1.3-4.2-1.5-4.3-2.1-.1-.5.7-2.4 5-3.2 4.3-.8 8.5.1 10.6.9 2 .9 5.3 3.5 5.3 3.5z" fill="#ffffff" stroke-width="none" opacity="1"></path></g><g id="svga-group-eyesiriswrapper-left" transform="matrix(1,0,0,1,0,0)"><g id="svga-group-eyesiriscontrol-left" transform="matrix(1,0,0,1,0,0)"><g id="svga-group-eyesiris-left"><path id="SvgjsPath13259" d="M80.1 88.4c2.8 0 5.2 2.3 5.2 5.2s-2.3 5.2-5.2 5.2-5.2-2.3-5.2-5.2 2.3-5.2 5.2-5.2z" fill="#4e60a3" stroke-width="none" opacity="1"></path><path id="SvgjsPath13260" d="M80.1 90.8c1.5 0 2.8 1.2 2.8 2.8s-1.2 2.8-2.8 2.8-2.8-1.2-2.8-2.8 1.2-2.8 2.8-2.8z" fill="#000000" stroke-width="none" opacity="1"></path><path id="SvgjsPath13261" d="m79.4 91.3-.6-.6c-.2-.2-.4-.3-.7-.3-.2 0-.5.1-.7.3-.2.2-.3.4-.3.7s.1.5.3.7l.6.6c.2.2.4.3.7.3.2 0 .5-.1.7-.3.3-.5.4-1.1 0-1.4zm2.5 4.7c.9 0 .9-1.4 0-1.4s-.8 1.4 0 1.4z" fill="#ffffff" stroke-width="none" opacity="1"></path></g></g></g><g id="svga-group-eyesfront-left"><path id="SvgjsPath13187" d="M73.6 97.3c4.6 1.3 10.9.5 13.3.2 2.4-.3 3.3-1.1 3.3-1.1s-3.2-2.6-5.3-3.5c-2.1-.9-6.3-1.7-10.6-.9-3.2.6-4.4 1.8-4.8 2.5 0-6.3 4.8-11.5 10.6-11.5 5.9 0 10.6 5.2 10.6 11.5S86 106 80.1 106c-5.5 0-10-4.5-10.6-10.4.3.5 1.2.8 4.1 1.7z" fill="#f0c7b1" stroke-width="none" opacity="1"></path><path id="SvgjsPath13188" d="M90.1 95.9c-1.2-3.3-4.1-5.6-7.5-6.2-3.9-.7-7.5 1-10.7 2.9-.1 0-.2-.1-.1-.1 5.5-4.7 16.4-4.9 18.5 3.5-.1-.1-.2 0-.2-.1z" fill="#e1ac8f" stroke-width="none" opacity="1"></path><path id="SvgjsPath13189" d="M90.2 96.6c-5.3-4.4-12.4-6.2-18.9-3.1-.3.1-.5.3-.8.4-1 1.3-.9 2.1.4 2.2.7.2 1.4.4 2.1.5 1.8.4 3.7.6 5.6.7 3.4.2 6.7-.1 10-.4.2 0 .2.2 0 .3-4.4 1.4-9.2 1.3-13.7.7-1.6-.2-8.7-.9-5.9-4.3 1-1.2 3.2-1.7 4.7-2 2.1-.5 4.2-.6 6.3-.4 3.8.5 7.7 2.3 10.3 5.2.2.1 0 .3-.1.2z" fill="#000000" stroke-width="none" opacity="1"></path></g></g></g><g id="svga-group-eyes-right-move" transform="matrix(1,0,0,1,0,0)"><g id="svga-group-eyes-right"><g id="svga-group-eyesback-right"><path id="SvgjsPath13180" d="M109.8 96.4s.9.8 3.3 1.1 8.7 1.1 13.3-.2c4.6-1.3 4.2-1.5 4.3-2.1.1-.5-.7-2.4-5-3.2-4.3-.8-8.5.1-10.6.9-2 .9-5.3 3.5-5.3 3.5z" fill="#ffffff" stroke-width="none" opacity="1"></path></g><g id="svga-group-eyesiriswrapper-right" transform="matrix(1,0,0,1,0,0)"><g id="svga-group-eyesiriscontrol-right" transform="matrix(1,0,0,1,0,0)"><g id="svga-group-eyesiris-right"><path id="SvgjsPath13262" d="M119.9 88.4c2.8 0 5.2 2.3 5.2 5.2s-2.3 5.2-5.2 5.2-5.2-2.3-5.2-5.2 2.4-5.2 5.2-5.2z" fill="#4e60a3" stroke-width="none" opacity="1"></path><path id="SvgjsPath13263" d="M119.9 90.8c1.5 0 2.8 1.2 2.8 2.8s-1.2 2.8-2.8 2.8-2.8-1.2-2.8-2.8 1.3-2.8 2.8-2.8z" fill="#000000" stroke-width="none" opacity="1"></path><path id="SvgjsPath13264" d="m119.3 91.3-.6-.6c-.2-.2-.4-.3-.7-.3-.2 0-.5.1-.7.3-.2.2-.3.4-.3.7s.1.5.3.7l.6.6c.2.2.4.3.7.3.2 0 .5-.1.7-.3.3-.5.4-1.1 0-1.4zm2.5 4.7c.9 0 .9-1.4 0-1.4s-.9 1.4 0 1.4z" fill="#ffffff" stroke-width="none" opacity="1"></path></g></g></g><g id="svga-group-eyesfront-right"><path id="SvgjsPath13190" d="M126.4 97.3c-4.6 1.3-10.9.5-13.3.2-2.4-.3-3.3-1.1-3.3-1.1s3.2-2.6 5.3-3.5c2.1-.9 6.3-1.7 10.6-.9 3.2.6 4.4 1.8 4.8 2.5 0-6.3-4.8-11.5-10.6-11.5-5.9 0-10.6 5.2-10.6 11.5S114 106 119.9 106c5.5 0 10-4.5 10.6-10.4-.3.5-1.2.8-4.1 1.7z" fill="#f0c7b1" stroke-width="none" opacity="1"></path><path id="SvgjsPath13193" d="M109.9 95.9c1.2-3.3 4.1-5.6 7.5-6.2 3.9-.7 7.5 1 10.7 2.9.1 0 .2-.1.1-.1-5.5-4.7-16.4-4.9-18.5 3.5.1-.1.2 0 .2-.1z" fill="#e1ac8f" stroke-width="none" opacity="1"></path><path id="SvgjsPath13194" d="M109.8 96.6c5.3-4.4 12.4-6.2 18.9-3.1.3.1.5.3.8.4 1 1.3.9 2.1-.4 2.2-.7.2-1.4.4-2.1.5-1.8.4-3.7.6-5.6.7-3.4.2-6.7-.1-10-.4-.2 0-.2.2 0 .3 4.4 1.4 9.2 1.3 13.7.7 1.6-.2 8.7-.9 5.9-4.3-1-1.2-3.2-1.7-4.7-2-2.1-.5-4.2-.6-6.3-.4-3.8.5-7.7 2.3-10.3 5.2-.2.1 0 .3.1.2z" fill="#000000" stroke-width="none" opacity="1"></path></g></g></g><g id="svga-group-facehighlight-single"></g><g id="svga-group-eyebrows-left-move" transform="matrix(1,0,0,1,0,0)"><g id="svga-group-eyebrows-left-rotate" transform="matrix(1,1.7453292519943295e-9,-1.7453292519943295e-9,1,1.4176201545978984e-7,-1.3606350535155798e-7)"><g id="svga-group-eyebrows-left"><path id="SvgjsPath13099" d="M67 82.5c.1-.3.3-.6.5-.8.1-.2.3-.5.5-.7.2-.2.4-.4.7-.6.5-.9 1.7-1.6 2.5-2.1.9-.5 1.8-.9 2.9-.9 1-.2 2.1-.2 2.9.2.4 0 .7.1 1 .3 1.1-.1 2.3.2 3.3.4 1.4.3 2.8.6 4.1 1.2 1.4 0 2.8.1 4.1.5h.2c.1 0 .2.1.2.1h.1c.1 0 .2.1.3.2.1.1 0 .3 0 .4v.1c0 .2 0 .4-.1.6 0 .6-.1 1.1-.5 1.6 0 .1 0 .2-.1.3-.1.5-.2 1.1-.7 1.4-.2.2-.5.3-.8.3-.1 0-.2 0-.3-.1h-.6c-.6.2-1.4 0-1.9-.1-.6-.1-1.2-.3-1.7-.6-1.8-.3-3.5-.8-5.3-1.2-1.6-.4-4-.4-5.4-1.3-.7.1-1.3.2-2 .2-.3 0-.7.1-1.1 0-.2 0-.5 0-.7-.2 0 0-.1 0-.1-.1h-.1l-.4.4c-.3.3-.7.7-1.2.8-.1.2-.3 0-.3-.3z" fill="#2a232b" stroke-width="none" opacity="1"></path><path id="SvgjsPath13100" d="M87.7 83c-.1-.6-.2-1.2-.4-1.7 0-.2.2-.3.3-.1.7 1 .9 2.8.2 3.9-.1.2-.3.1-.3-.1.1-.8.2-1.4.2-2zm-3.4-3.2c1.3.8 2.1 2.6 2.1 4 0 .2-.3.3-.3.1-.2-.7-.4-1.3-.7-1.9-.3-.7-.9-1.2-1.3-1.9-.3-.2 0-.4.2-.3zm-3.3-.7c2.2.8 3.8 3.2 4.2 5.3 0 .2-.2.2-.3.1-.4-1-.9-2-1.7-2.8-.7-.9-1.6-1.4-2.5-2.2-.2-.1.1-.5.3-.4zm-4.9-.8c2.4.6 4.8 2.6 5.8 4.7.1.2-.3.4-.4.2-.8-1-1.6-1.9-2.6-2.7-.9-.7-2-1.2-3-1.8-.2-.1-.1-.4.2-.4zM67.4 82c1.6-1.8 3.8-4.3 6.5-4 .2 0 .2.3 0 .3-2.6.2-4.3 2.5-6.3 3.9-.2.1-.4-.1-.2-.2z" fill="#3a353a" stroke-width="none" opacity="1"></path><path id="SvgjsPath13101" d="M90.9 80.6c-.1-.3-.5-.3-.6 0-.3 1.1-.3 2.4-1.2 3.3-.6.7-1.5.8-2.4.7.3-1.5.2-3.7-.8-4.9-.2-.2-.5-.1-.4.2 0 .8.4 1.6.5 2.4.1.8.2 1.5.2 2.3-.1 0-.2 0-.3-.1-.3-2-1.3-4.1-2.8-5.5 2.3.5 4.6.9 6.9 1.1.1 0 .2-.2.1-.2-2.6-.9-5.3-1.4-8-2-2.4-.5-5.1-1.4-7.6-1.5-2.1-.1-3.6.9-5 2.2-1.5 1.4-3.1 3.1-4.1 4.9l-.2.2c-.1.1-.2.3-.1.4 0 0 0 .1-.1.1-.2.4.3.7.6.4.1 0 .2 0 .3-.1 1.4-.7 2.5-1.4 4.1-1.6 1.3-.2 2.7-.1 4 .1 2.9.4 5.6 1.3 8.3 2.1 2.1.6 4.9 1.7 6.9.2 1.7-1 1.9-3.1 1.7-4.7zm-13.4 1.3c-.5-.1-1.1-.2-1.7-.3.1-1.1-.3-2.3-.8-3.3.7.6 1.4 1.2 2 1.9.6.6.9 1.4 1.5 2-.4-.1-.7-.2-1-.3zM70 79.5c1.2-1.1 2.5-1.7 4-1.9.2.8.6 1.6.7 2.4l.3 1.5c-.3 0-.7-.1-1-.1-.5-.9-1.3-1.8-2.3-2.1-.2-.1-.3.2-.2.4.4.4.9.8 1.3 1.2.1.2.2.3.4.5-1.9-.1-3.8.1-5.4.8.6-1 1.3-1.9 2.2-2.7zm15.2 4.8c-.2-.1-.4-.1-.6-.2-.4-.1-.9-.3-1.3-.4-.8-1.8-2.1-3.6-3.7-4.8-.2-.1-.4.1-.3.2 1.2 1.4 2.2 2.9 3.3 4.4-1.1-.4-2.2-.7-3.2-1.1-.2-1.1-1.2-2.2-1.9-3-.7-.7-1.5-1.4-2.4-1.9.4 0 .8.1 1.3.1 2 .3 4 .8 6 1.2v.1c.7 1.1 1.5 2.2 2.1 3.3.2.7.4 1.4.7 2.1z" fill="#1b141c" stroke-width="none" opacity="1"></path></g></g></g><g id="svga-group-eyebrows-right-move" transform="matrix(1,0,0,1,0,0)"><g id="svga-group-eyebrows-right-rotate" transform="matrix(1,1.7453292519943295e-9,-1.7453292519943295e-9,1,1.4176202967064455e-7,-2.127084570702209e-7)"><g id="svga-group-eyebrows-right"><path id="SvgjsPath13102" d="M133 82.5c-.1-.3-.3-.6-.5-.8-.1-.2-.3-.5-.5-.7-.2-.2-.4-.4-.7-.6-.5-.9-1.7-1.6-2.5-2.1-.9-.5-1.8-.9-2.9-.9-1-.2-2.1-.2-2.9.2-.4 0-.7.1-1 .3-1.1-.1-2.3.2-3.3.4-1.4.3-2.8.6-4.1 1.2-1.4 0-2.8.1-4.1.5h-.2c-.1 0-.2.1-.2.1h-.1c-.1 0-.2.1-.3.2-.1.1 0 .3 0 .4v.1c0 .2 0 .4.1.6 0 .6.1 1.1.5 1.6 0 .1 0 .2.1.3.1.5.2 1.1.7 1.4.2.2.5.3.8.3.1 0 .2 0 .3-.1h.6c.6.2 1.4 0 1.9-.1.6-.1 1.2-.3 1.7-.6 1.8-.3 3.5-.8 5.3-1.2 1.6-.4 4-.4 5.4-1.3.7.1 1.4.2 2 .2.3 0 .7.1 1.1 0 .2 0 .5 0 .7-.2 0 0 .1 0 .1-.1h.1l.4.4c.3.3.7.7 1.2.8.1.2.3 0 .3-.3z" fill="#2a232b" stroke-width="none" opacity="1"></path><path id="SvgjsPath13103" d="M112.3 83c.1-.6.2-1.2.4-1.7 0-.2-.2-.3-.3-.1-.7 1-.9 2.8-.2 3.9.1.2.3.1.3-.1-.1-.8-.2-1.4-.2-2zm3.4-3.2c-1.3.8-2.1 2.6-2.1 4 0 .2.3.3.3.1.2-.7.4-1.3.7-1.9.3-.7.9-1.2 1.3-1.9.3-.2 0-.4-.2-.3zm3.3-.7c-2.2.8-3.8 3.2-4.2 5.3 0 .2.2.2.3.1.4-1 .9-2 1.7-2.8.7-.9 1.6-1.4 2.5-2.2.2-.1-.1-.5-.3-.4zm4.9-.8c-2.4.6-4.8 2.6-5.8 4.7-.1.2.3.4.4.2.8-1 1.6-1.9 2.6-2.7.9-.7 2-1.2 3-1.8.2-.1.1-.4-.2-.4zm8.7 3.7c-1.6-1.8-3.8-4.3-6.5-4-.2 0-.2.3 0 .3 2.6.2 4.3 2.5 6.3 3.9.2.1.4-.1.2-.2z" fill="#3a353a" stroke-width="none" opacity="1"></path><path id="SvgjsPath13104" d="M110.6 85.3c2 1.5 4.8.4 6.9-.2 2.8-.8 5.5-1.8 8.3-2.1 1.3-.2 2.7-.3 4-.1 1.6.2 2.7.9 4.1 1.6.1.1.2.1.3.1.3.3.8 0 .6-.4 0 0 0-.1-.1-.1 0-.1 0-.3-.1-.4l-.2-.2c-1-1.8-2.6-3.5-4.1-4.9-1.4-1.3-2.9-2.3-5-2.2-2.5.1-5.2 1-7.6 1.5-2.7.6-5.4 1.1-8 2-.2.1-.1.2.1.2 2.3-.2 4.6-.6 6.9-1.1-1.5 1.4-2.5 3.5-2.8 5.5-.1 0-.2 0-.3.1.1-.8.1-1.5.2-2.3.1-.8.5-1.6.5-2.4 0-.2-.3-.3-.4-.2-1 1.2-1.1 3.4-.8 4.9-.9.1-1.7 0-2.4-.7-.8-.9-.9-2.2-1.2-3.4-.1-.3-.5-.3-.6 0 0 1.7.2 3.8 1.7 4.8zm10.9-3.2c.5-.6.9-1.4 1.5-2 .6-.7 1.3-1.3 2-1.9-.5 1-.9 2.3-.8 3.3-.6.1-1.2.2-1.7.3-.3.2-.6.3-1 .3zm10.8 0c-1.6-.7-3.6-.9-5.4-.8.1-.2.2-.3.4-.5.4-.5.9-.8 1.3-1.2.1-.1.1-.4-.2-.4-1 .3-1.8 1.2-2.3 2.1-.3 0-.7.1-1 .1l.3-1.5c.2-.8.5-1.6.7-2.4 1.4.2 2.7.8 4 1.9.8.9 1.5 1.8 2.2 2.7zm-16.7.2c.6-1.2 1.4-2.2 2.1-3.3v-.1c2-.4 4-.9 6-1.2.4-.1.9-.1 1.3-.1-.9.5-1.7 1.2-2.4 1.9-.7.8-1.7 1.9-1.9 3-1.1.3-2.2.7-3.2 1.1 1-1.5 2.1-2.9 3.3-4.4.1-.2-.1-.3-.3-.2-1.6 1.2-2.9 3-3.7 4.8-.4.1-.9.3-1.3.4-.2.1-.4.1-.6.2.2-.8.4-1.5.7-2.1z" fill="#1b141c" stroke-width="none" opacity="1"></path></g></g></g><g id="svga-group-beardwrap"><g id="svga-group-beard-single-move" transform="matrix(1,0,0,1,0,0)"><g id="svga-group-beard-single"><path id="SvgjsPath13612" d="M145.5 112.7c-.3-5.3.2-17.7-4-18.7-4.1-.9-5.4 7.3-6.8 15.4s-2.9 15.7-8.2 14.8c-5.3-.9-1.6-5.2-5.4-7.4-3.8-2.3-11.2.3-14 1.5-2.8 1.2-9.1 1.5-14.2-.3s-11.9-2.3-14.2.3-.6 4.4-3.2 6.1-7.7-.8-8.7-6.1-1.2-13.5-1.9-17.1c-.6-3.6-1.7-7.4-4-7.4-3.7 0-5.4 4.9-5.9 8.7-.5 3.8-1 17.5 0 22.2.5 2.9.8 9.1 5.1 13.9s22.4 19.2 29.5 21.8 13.5 2.4 19.9.5c6.3-1.8 26.4-16.8 30.3-22.5 7.3-9.4 6-20.5 5.7-25.7zm-29 20c-3.5 6.6-7.6 7.3-9.3 7.8s-2.6-.4-2.6-1.6 0-2.1-.6-2.1-6.4-.2-7.4-.2-.8.6-.9 2.3c-.1 1.6-1.9 2-4.3 1s-7.2-6.9-8.6-11.5-1.2-5.4.6-4.9c.9.2 4.7 1.2 7.9 1.4s7.2-.2 8.6-.8c1.4-.5 6 .9 9.3.8s6.8-1.1 8.7-1.8c1.9-.8 2 3.2-1.4 9.6z" fill="#2a232b" stroke-width="none" opacity="1"></path><path id="SvgjsPath13613" d="M55.4 118.9c0-.1-.1-.1-.1 0-.2.8-.3 1.6-.5 2.4.3-4.3.5-8.7.8-13 0-.2-.2-.2-.3-.2.3-1.9.6-3.8.8-5.8 0-.3-.4-.4-.5-.1-.2.8-.4 1.5-.5 2.3.5-3 .9-7.7 3.6-9.4.2-.1.1-.4-.2-.4-1.4.4-2 1.6-2.4 2.9-.8 2.3-1.2 4.8-1.3 7.2 0 .1.2.2.2 0v-.1c-.4 2.2-.5 4.6-.5 6.8-.6 4-.8 8.2-.3 12 0 .2.2.2.3.1-.1 2.1.2 4.3 1.1 6.3.1.3.5.1.4-.1-.8-3.7-1.4-7.2-.6-10.9zm3 13.9c0-.2-.2-.2-.3-.1-.2-2.1-.4-4.1-.1-6.2 0-.3-.5-.4-.5-.1-.5 2.7-.5 5.5.4 8.1.1.2.5.2.4-.1v-.1c.5 2 1.2 4 2.6 5.5.2.2.5-.1.4-.3-1.3-2.3-2.4-4.3-2.9-6.7zM83 156.9c-2.6-2.6-5.1-5.2-7.2-8.3-.1-.1-.2 0-.2.1 1.8 3.2 4 6.3 7 8.5.3.2.6-.1.4-.3zm-4.2-2.7v-.1c-.4-.5-.9-1-1.3-1.6-.3-.5-.5-1.2-.8-1.7-.1-.1-.2-.1-.3.1-.1.5.1 1.1.4 1.6-2.3-1.8-4.9-3.5-6.2-6.2-.1-.2-.3-.1-.3.1.2.4.4.8.7 1.2-2.2-2-4.5-3.9-6.6-6.1-.2-.2-.5 0-.3.2.5.6 1.1 1.2 1.7 1.8-2.2-2-4.1-4.1-6-6.4-.1-.1-.3 0-.2.2 2 3 4.1 6.3 7.4 7.9.1.1.2 0 .3-.1 1.3 1.3 2.8 2.5 4.4 3.4h.1c1.7 2.2 4.1 3.8 6.4 5.4.1.1.2.1.2.2.1.1.2.2.4.2 0 .2.2.1 0-.1 0 .1 0 0 0 0zm6.1 1.5c-.2-.2-.4 0-.4.2-1.6-1.4-3.3-2.9-4.8-4.4-.2-.2-.6.1-.4.4 2.8 3 5.8 6.1 9.2 8.4.2.2.5-.2.3-.4l-.6-.6c1.7 1.4 3.6 2.6 5.6 3.1.1 0 .2-.1.1-.2-2.9-2.3-6.2-4-9-6.5zm7.9 4.7c-.3-.2-.7.3-.3.5 1.7.8 3.7 1.9 5.6 1.7.2 0 .4-.3.1-.4-1.7-.8-3.6-1-5.4-1.8zm13.9.2c-2.4.5-4.5 1.4-7 1.5-.4 0-.5.5-.1.6 1.2.3 2.3-.1 3.4-.4 1.3-.4 2.6-.9 3.8-1.5.1 0 0-.2-.1-.2zm4.9-1.4c-2.1 1.2-4 2.6-6.4 2.8-.2 0-.2.3 0 .3 2.5-.2 4.7-1.4 6.6-2.9.1-.1 0-.3-.2-.2zm5.9-4.3c-1.2.9-2.4 1.9-3.6 2.8-1.3 1.1-2.8 2.5-4.3 3.3-.2.1-.1.5.2.4 1.4-.4 2.6-1.5 3.7-2.4 1.5-1.2 3-2.4 4.3-3.7.1-.3-.1-.6-.3-.4zm26.8-53c-.2-2.2-.8-4.2-1.4-6.3-.1-.2-.5-.2-.4.1.5 2.1.9 4.2 1.5 6.2.1.2.3.2.3 0zm.5.7c0-.2-.4-.1-.3 0 .2 2.3.5 4.7.9 7-.1-.1-.3 0-.3.1 0 3.8-.1 7.6 0 11.3-.2 2.8-.5 5.6-.9 8.3 0 .2.3.3.3.1.8-2.9 1.1-5.9 1.2-8.8.3-3.4.2-6.8-.2-10.2.2.8.4 1.5.6 2.2.1.2.4.1.4-.1-.5-3.2-1.2-6.6-1.7-9.9zm-1.6 25.2c0-.2-.2-.2-.3 0-.2 1-.2 2.1-.4 3.1-1.3 3-3 5.4-5 7.9.2-.3.3-.6.5-1 .1-.2-.2-.4-.4-.2-1.1 1.7-2.3 3.4-3.4 5-.1-.2-.4-.3-.6-.1-2 2.4-4.3 4.5-6.4 6.8 0-.1-.1-.3-.3-.2-2.3 1.3-4.4 3-6.4 4.8h-.2c-2.4 1.6-4.7 3.6-6.9 5.5-.1.1 0 .3.2.2 1.9-1.4 3.9-2.8 5.7-4.3.1 0 .2.1.2 0 2.5-1.8 5.1-3.6 7.4-5.7-.2.2.1.5.3.3 2.3-1.6 4.3-3.8 6.1-6-.2.2-.3.5-.5.7v.1l-.6.6c-.2.3-.5.6-.6 1 0 .1.1.2.2.1.4-.2.6-.6.9-.9.2-.2.3-.4.5-.6 1.4-1.3 2.6-2.9 3.6-4.6h.3c.8-.6 1.6-1.4 2.2-2.2-.1.2-.2.3-.3.5-.6.9-1.4 1.7-2.1 2.6-.4.4-.8.9-1.2 1.3-.9.8-1.8 1.6-2.5 2.5-.2.2.1.5.3.3.9-.9 1.8-1.8 2.8-2.7.6-.6 1.2-1.2 1.6-1.9 1.3-1.2 2.4-3 2.8-4.7.3-.6.6-1.1.9-1.7.5-1 1-2.1 1.3-3.1 0-.1 0-.2.1-.3 0-.1 0-.1.1-.2v-.1c.1-.8.1-1.8.1-2.8zm-58.8-4.9c-.4-.1-.9-.1-1.4-.2-1-.1-1.9-.4-2.9-.3-.2 0-.3.3-.1.4 1 .6 2.4.8 3.8.9 1.7.5 3.6.7 5.4.7 0 .1 0 .2.1.2 3.6 1 8.1.6 11.6-1 4.1 1.6 9.1 1.5 13.4.5 2.2.2 4.5-.5 6.4-1.4.3-.1.1-.5-.2-.4-2 .4-3.8 1.1-5.8 1.2h-.1c-.2 0-.5-.1-.7-.1-2.8-.4-5.5-1.2-8.2-2.4-.2-.1-.4.2-.2.3 1.5.8 3.1 1.5 4.8 2-3.5.1-7.1.6-10.4-1.2-.2-.1-.3.2-.2.3.5.3 1.1.6 1.6.8h-.1c-.2.1-.3.1-.5.1-.1 0-.2 0-.2.1-3.1.8-5.9 1.2-9.1 1.2 2-.2 4-.5 5.8-1 .2 0 .1-.3 0-.3-2.7.2-5.2.4-7.8.4 3.5-.3 7-1.3 10.1-3 .2-.1.1-.4-.2-.4-4.9 1.8-9.7 2.7-15 2.8.2-.3.2-.2.1-.2zm26.4.7c-3.1.2-6 .4-9.2-.4.1-.1.1-.2 0-.3 2.8 1 6 .8 9.2.7zm-51.3-23c-1 2.4-1.8 4.9-1.6 7.6 0 .1 0 .1.1.1-.5 1.1-.7 2.3-.4 3.6 0 .2.3.2.3-.1 0-1.4.1-2.8.7-4.1.1-.2-.2-.4-.3-.2.3-2.4.7-4.7 1.5-6.9 0 0-.3-.1-.3 0zm-1.2 11.2c-1.2 2.9-1.9 6.1-1.4 9.3 0 .1.1.2.2.2 0 .7 0 1.4.2 2.1.1.3.4.2.5-.1.1-1.9.2-3.8.4-5.6 0-.3-.4-.3-.5-.1 0 .1-.1.3-.1.4.2-2 .4-4.1 1-6.1 0-.2-.3-.3-.3-.1zm.6 10.4c-.1 1.7-.2 3.4-.1 5 0 .2.4.3.4.1.2-1.7.2-3.4.2-5.1 0-.3-.5-.3-.5 0zm7.3 11.4c.4 1.5.8 2.9 1.3 4.4 0 .1.1 0 .1 0-.3-1.5-.8-2.9-1.1-4.4-.1-.2-.3-.2-.3 0zm2.4 3.2c.2 1.5.6 3.1 1.5 4.4.1.1.3.1.3-.1-.5-1.5-1.1-2.9-1.4-4.4-.1-.2-.5-.1-.4.1zm4.8 7.7c-.6-1.9-1.5-3.6-2.1-5.5-.1-.3-.5-.1-.4.1.5 1.9 1.1 3.9 2.2 5.5.1.2.4.1.3-.1zm2.4 2c.1.1.3.1.3-.1-.4-1.1-1-2.2-1.5-3.3-.1-.3-.5 0-.4.2.5 1.1.9 2.3 1.6 3.2zm2.3 2.4c.1.1.3.1.3-.1-.4-1.2-1.1-2.3-1.8-3.3-.1-.2-.5 0-.4.2.7 1 1.2 2.2 1.9 3.2zm3-.8c.4 1.5 1 3 2.1 4.2.2.2.4 0 .3-.2-.7-1.4-1.6-2.6-2.1-4-.1-.2-.3-.2-.3 0zm5.5 7c.1.1.3-.1.2-.2-1-1.2-2.1-2.4-2.9-3.8-.1-.2-.4 0-.3.2.8 1.4 1.7 2.8 3 3.8zm2.4 1.3c.1.1.3 0 .2-.2-.7-1-1.7-1.9-2.5-2.9-.2-.2-.5.1-.3.3.8 1 1.6 2 2.6 2.8zm2.7 1.3c.1.1.2 0 .2-.1-.6-.9-1.5-1.8-2.2-2.6-.2-.2-.5.1-.3.3.7.8 1.4 1.7 2.3 2.4zm3.1 1.6c.1 0 .3-.1.1-.2-.5-.4-1-.7-1.5-1.2-.2-.2-.5.1-.3.3.6.4 1.1.9 1.7 1.1zm-31.9-30.4c.2 1.8.8 3.3 1.8 4.9.1.2.4 0 .3-.2-.9-1.4-1.5-3-1.9-4.7 0-.1-.2-.1-.2 0zm-.4 1.3c.2.7.5 1.4.9 2 .1.2.4 0 .3-.2-.5-1-.9-2-1.3-3.1 0-.1-.3-.1-.2.1 0 .2.1.4.1.5-.6-1.3-1-2.7-1.2-4.1 0-.1-.2-.1-.2 0 .1 1.7.6 3.2 1.4 4.7 0 .2.1.2.2.1zm43.8 28.8c1.4-1.1 2.8-2.4 3.6-4 .1-.1-.1-.3-.2-.2-1.2 1.4-2.2 2.8-3.7 4-.1.1.1.3.3.2zm2.6-1.6c.4-.4.8-.9 1.1-1.3.3-.4.7-1 .8-1.5.1-.2-.3-.4-.4-.2-.3.4-.5.9-.8 1.4-.3.5-.7.9-1.1 1.3-.1.2.2.5.4.3zm2.1-1.2c.8-.7 1.7-1.7 1.9-2.7 0-.1-.2-.3-.3-.2-.7.9-1.2 1.8-1.9 2.6-.1.3.1.5.3.3zm2.6-1.6c.6-.6 1.2-1.3 1.7-2 .2-.3-.2-.5-.4-.3-.6.6-1.2 1.2-1.7 1.8-.4.3.1.8.4.5zm10-7.5c.6-.3.8-1 1.1-1.6.3-.7.5-1.5.6-2.3 0-.2-.3-.2-.3 0-.3.7-.6 1.5-.9 2.2-.2.5-.6 1-.6 1.6-.1 0 0 .1.1.1zm2.1-1.7c.6-.8.7-2 1-2.9.1-.3-.4-.5-.5-.1-.3.9-.8 2-.8 3-.1.1.2.2.3 0zm1.5-1.3c.6-.8.7-2.1.8-3 0-.2-.4-.3-.4-.1l-.3 1.5c-.1.5-.3.9-.4 1.4-.1.2.1.3.3.2zm1.2-1.2c.5-.6.6-1.6.5-2.3 0-.3-.5-.3-.5 0 0 .4 0 .7-.1 1.1-.1.3-.2.6-.3 1-.1.1.2.3.4.2zm3.2-3.4c.6-1 .5-2.7.6-3.8 0-.1-.2-.1-.2 0-.1.7-.2 1.4-.4 2.1-.1.5-.3 1.1-.2 1.6-.1.2.1.2.2.1zm1.7-2.2c.2-.4.1-.9.2-1.4 0-.5.1-1.1.1-1.6 0-.2-.4-.2-.4 0-.1 1-.4 2.1-.2 3.1.1.1.3.1.3-.1zm1-1.1c.3-.3.2-.8.3-1.2v-1.6c0-.3-.5-.3-.5 0v1.5c0 .4-.2.9 0 1.3 0 .1.1.1.2 0zm1.1-1.5c.4-.8.4-1.8.2-2.6-.1-.2-.4-.1-.3.1.1.8 0 1.6-.1 2.4 0 .2.2.3.2.1zm6.5-23.5c.1 2.8.1 5.7.2 8.5 0 .2.2.1.2 0 .2-2.9.2-5.7 0-8.5 0-.2-.4-.2-.4 0zm-.6 10.8c0 .2.3.2.3 0 .4-1.5.3-3.1.1-4.7 0-.3-.4-.3-.4 0 .1 1.6.1 3.1 0 4.7zm-2.2 6.4c.5-.8.9-1.8 1-2.8v.2c0 .2.3.3.4.1.6-1.6.6-3.4.5-5.1 0-.3-.5-.3-.5 0 .1 1.2-.1 2.3-.2 3.4.1-.5.1-1 .1-1.4 0-.3-.5-.3-.5 0-.1 1-.2 2-.4 2.9-.2.8-.6 1.7-.7 2.5-.1.2.2.4.3.2zm-1.4 1.2c.7-1.1.9-2.5 1.1-3.7 0-.3-.4-.4-.4-.1-.2 1.3-.7 2.4-1.1 3.7 0 .2.3.3.4.1zm-1 .6c.5-1.1.6-2.3.9-3.4.1-.3-.4-.5-.5-.1-.3 1.1-.7 2.3-.8 3.5 0 .1.3.2.4 0zM90.3 153c-.8-1.8-1.5-3.6-1.9-5.5-.1-.3-.5-.2-.4.1.4 2 1 3.8 2.1 5.5.1.2.2.1.2-.1zm2.2 2.3c.5.9 1.1 1.7 1.9 2.4.1.1.3 0 .2-.2-1.2-1.7-2.3-3.4-3.1-5.3-.1-.2-.4-.1-.3.1.2.7.5 1.3.8 1.9-.8-1.3-1.6-2.5-2.1-3.9-.1-.2-.4-.1-.3.1.6 1.7 1.4 3.6 2.7 4.9 0 .1.1.1.2 0zm4 4.5c.2.1.3-.1.2-.2-.7-1.1-1.6-2-2.2-3.2-.1-.2-.4-.1-.3.1.5 1.1 1.2 2.5 2.3 3.3zm1.8.7c-.5-.9-1.1-1.8-1.6-2.7-.1-.2-.5 0-.4.2.5.9 1.1 1.9 1.9 2.6 0 0 .1 0 .1-.1zm1.2-.4c-.3-.5-.6-.9-.8-1.5-.1-.2-.4-.1-.3.1.2.6.4 1.1.8 1.6.2 0 .4-.1.3-.2zm-16.4-18.7c.3 1.6.8 3.3 1.8 4.7.1.1.4.1.3-.1-.6-1.5-1.3-3-1.7-4.6-.1-.4-.4-.3-.4 0zm1.3 4.6c-.5-1.6-1.3-3.1-2-4.7-.1-.1-.3 0-.2.1.6 1.6 1.2 3.2 1.9 4.7.1.2.3.1.3-.1zm-.9.4c-1.1-2-2.3-3.9-3.2-6-.1-.1-.3 0-.3.1.9 2.1 1.8 4.2 3.2 6.1.1.2.4 0 .3-.2zm-2.8-1.7c-.5-1.7-1.3-3.3-2.2-4.9-.1-.1-.3 0-.2.1.8 1.6 1.4 3.3 2.2 4.9 0 0 .2 0 .2-.1zm-2.9-2.8c-.4-1.3-.9-2.5-1.4-3.8-.1-.2-.5-.1-.4.1.5 1.3 1 2.6 1.6 3.8.1.1.2 0 .2-.1zM62 108.1c.2-1.1.3-2.2.5-3.3.2-1 .5-1.9.6-2.9 0-.2-.2-.2-.3-.1-.8 1.8-1.2 4.2-1.1 6.2 0 .2.3.3.3.1zm.8 2.8c0 .4-.1.8-.1 1.2.1-1.7.1-3.4.3-5.1 0-.2-.3-.2-.3 0-.2 1.8-.4 3.7-.3 5.5 0 .2.2.2.2 0-.1 1.3-.1 2.7.2 4 0 .1.2.1.2 0 0-1.8-.1-3.6.1-5.5.1-.3-.3-.4-.3-.1zm1.3 10.1c-.2-1.9-.3-3.7-.1-5.5 0-.2-.3-.2-.3 0-.3 1.8-.3 3.8.2 5.6-.1.1.2.1.2-.1zm2 4.5c-.6-2.1-1.2-4.1-1.4-6.4 0-.2-.3-.2-.3 0 0 2.2.2 4.5 1.4 6.5.1.1.3 0 .3-.1zm1.3.8c-.3-.7-.7-1.4-1-2.1-.1-.2-.4-.1-.4.1.2.7.5 1.7 1.1 2.2.1.1.4 0 .3-.2zm1.6 1.1c.1.1.3 0 .3-.2-.3-.8-.9-1.6-1.4-2.3-.1-.2-.5 0-.4.2.5.8.9 1.6 1.5 2.3zm9.1 3.6c-.2-1.1-.5-2.2-.8-3.3-.1-.2-.1-.5-.2-.7-.1-.3-.1-.6-.2-.9 0-.2-.3-.1-.2.1.2 1.6.5 3.4 1.1 4.9.1.1.4.1.3-.1zm.9-1.5c-.3-1.8-.7-3.6-.9-5.5 0-.3-.5-.3-.4 0 .2 1.9.4 3.8 1.1 5.6 0 .1.2.1.2-.1zm.1-2.5c.3 3.3 1.3 6.6 3.2 9.3.1.2.5 0 .3-.2-1.6-3-2.7-5.8-3.2-9.2.1-.1-.3-.1-.3.1zm6.5 13.6c-1-1.9-2.1-3.7-2.9-5.6-.1-.2-.4 0-.3.2.9 1.9 1.8 3.9 3 5.6 0 .1.3 0 .2-.2zm35.1-18c0 .4.1.8.1 1.3.1 1.8.1 3.6.1 5.5 0 .1.2.1.2 0 .5-2.3.3-4.6 0-6.8 0-.2-.4-.2-.4 0zm-.2 9.2c.4-2.2.2-4.4 0-6.6 0-.2-.4-.2-.4 0 .2 2.2 0 4.3.1 6.5 0 .2.3.3.3.1zm-.7-2.7c-.4 1.8-1 3.5-1.5 5.3-.1.2.2.3.3.1.8-1.6 1.3-3.5 1.6-5.3 0-.3-.4-.4-.4-.1zm-5.5 8.7c-.8 1.8-1.7 3.6-2.3 5.4-.1.2.2.3.3.1.9-1.8 1.6-3.6 2.3-5.4.1-.1-.2-.2-.3-.1zm-4.5 7.6 1.2-2.4c.1-.2-.2-.3-.3-.1-.4.8-.7 1.6-1.1 2.4 0 .1.2.1.2.1zm-.5-2.6c-.7 1.9-1.6 3.8-2.6 5.6-.1.2.2.3.3.2 1.2-1.7 2.1-3.6 2.7-5.6.1-.4-.3-.5-.4-.2zM94 151.3c-.7-2.1-1.4-4.2-1.8-6.4 0-.2-.4-.1-.3.1.4 2.2.9 4.4 1.9 6.4-.1.2.2 0 .2-.1zm2.8 3.3c-.9-1.7-1.7-3.3-2.1-5.1-.1-.3-.5-.2-.4.1.4 1.8 1.1 3.7 2.3 5.2.1.2.3 0 .2-.2zm2.6 2.2c-.5-1-1-1.9-1.5-2.9-.1-.3-.6-.1-.4.1.4 1 .9 2.1 1.7 2.9.1.2.2 0 .2-.1zm5.5-4.5c-.2.9-.3 1.8-.4 2.7 0 .1.2.1.2 0 .3-.8.4-1.7.6-2.6.1-.3-.4-.4-.4-.1zm1.5 1.1c0 .8-.2 1.5-.2 2.3 0 .2.3.3.4.1.4-.7.4-1.6.4-2.4 0-.4-.6-.4-.6 0zm-25.2-32.3c4.8 1 9.8-.1 14.4-1.6.2-.1.1-.4-.1-.3-4.8 1-9.3 2-14.3 1.7-.2-.1-.2.2 0 .2zm-3.1 0c1.1-.9 2.2-1.8 3.5-2.4.2-.1.1-.3-.1-.3-1.4.5-2.8 1.3-3.6 2.5-.1.2.1.3.2.2zm27.7-1.6c3.1-.1 6-1.3 9.1-1.2.1 0 .1-.2 0-.2-3.1-.3-6.1.6-9.1 1.2-.2 0-.2.2 0 .2zm18.2 10.7c-.5-3.7-1.1-7.4-1.4-11.1 0-.2-.3-.2-.3 0 .2 3.7.3 7.6 1.3 11.2.1.3.4.2.4-.1zm-2.8 3.2c-.9 2.1-1.2 4.3-2.2 6.3-.1.2.1.4.3.2 1.5-1.9 1.6-4.2 2.4-6.4.1-.3-.4-.4-.5-.1zm-5.7 13.8c1.1-2.3 1.9-4.7 2.5-7.2.1-.3-.4-.5-.5-.1-.6 2.4-1.4 4.8-2.3 7.2-.1.1.2.2.3.1zM78.2 136c-.4-2.2-1.1-4.3-1.8-6.4-.1-.3-.6-.2-.5.1.6 2.2 1.1 4.3 2 6.4.1.2.4.1.3-.1zm.1-1.5c1 2.1 1.9 4.2 3.2 6.2.1.2.5.1.4-.2-.9-2.1-2.2-4.1-3.3-6.2-.1-.1-.4 0-.3.2z" fill="#1b141c" stroke-width="none" opacity="1"></path></g></g></g><g id="svga-group-mustache-single-move" transform="matrix(1,0,0,1,0,0)"><g id="svga-group-mustache-single"></g></g><g id="svga-group-nose-single-move" transform="matrix(1,0,0,1,0,0)"><g id="svga-group-nose-single"><path id="SvgjsPath13294" d="M105.53 106.38c.26.82 3.73 4.55 3.79 6.57.06 2.02-2.08 4.04-4.74 2.21 0 0-2.46 1.89-4.74 1.64s-3.54-1.83-3.54-1.83-2.15.82-3.98.19c-1.83-.63-2.27-2.84-.95-4.86 1.33-2.02 3.6-5.49 4.1-7.45.52-1.96 7.09-5.62 10.06 3.53z" fill="#f0c7b1" stroke-width="none" opacity="1" transform="translate(0 1)"></path><path id="SvgjsPath13295" d="M105.49 105.94c-.16-.2-.5.06-.36.28.93 1.43 1.95 2.83 2.81 4.31.59 1 1.18 2.25.77 3.46-.67 1.98-2.42 1.87-3.83 1.11.53-.68.84-1.48.77-2.36-.02-.22-.32-.41-.48-.2-1.4 1.76-2.29 3.6-4.89 3.7-2.75.11-4.52-2.12-5.25-4.51-.06-.21-.35-.16-.36.05-.07 1.1.27 2.16.87 3.06-.4.07-.8.15-1.2.17-1.28.08-1.49-.02-2.33-1.09-.89-1.12-.89-1.4-.4-2.65.23-.58.58-1.08.91-1.61 1.08-1.68 2.04-3.39 2.75-5.26 1.43-3.73 2.05-7.86 1.36-11.81-.03-.17-.29-.12-.29.04-.01 3.2-.21 6.36-1.15 9.44-.97 3.19-2.81 5.59-4.34 8.46-.8 1.49-1.13 3.46.23 4.74 1.35 1.28 3.43.87 5.01.27.94 1.02 2.24 1.72 3.61 1.85 1.55.14 3.58-.61 4.83-1.88 1.45 1.61 4.23.86 4.96-1.19 1.09-3.12-2.3-6.24-4-8.38z" fill="#c27b55" stroke-width="none" opacity="1" transform="translate(0 1)"></path><path id="SvgjsPath13296" d="M102.24 108.78c-.89-.83-2.3-1.07-3.3-.3-.36.28-.58.63-.67 1-.17.06-.34.16-.48.3-.76.74-.44 1.9.21 2.59.55.59 1.45.87 2.24.83.97-.05 1.85-.51 2.39-1.33.63-.95.44-2.31-.39-3.09z" fill="#f8d5c3" stroke-width="none" opacity="1" transform="translate(0 1)"></path></g></g><g id="svga-group-hair-front"><path id="SvgjsPath13388" d="M143.6 75.2s.6-3.3-1.2-6.4c0 0 .6-3.2-1.2-5.6 0 0-.2-5.5-4.2-7.2 0 0 .2-4.5-4.1-6 0 0 .2-5-6.8-6.8 0 0-1.7-4.4-6.1-4.2 0 0-3.2-4.2-7.7-2.9 0 0-1.9-2.9-6.3-.8 0 0-2.8-2.2-6.1-.5h.1c-3.3-1.8-6.1.5-6.1.5-4.4-2.1-6.3.8-6.3.8-4.5-1.2-7.7 2.9-7.7 2.9-4.4-.2-6.1 4.2-6.1 4.2C66.8 45 67 50 67 50c-4.3 1.5-4.1 6-4.1 6-3.9 1.7-4.2 7.2-4.2 7.2-1.8 2.5-1.2 5.6-1.2 5.6-1.8 3.2-1.2 6.4-1.2 6.4S55 79.6 54.9 82s4.4 11.2 7.2 8-.1-6.6-.1-6.6c4.6 1.1 1.1-8.3 1.1-8.3 3.4-2.4 1.5-6.2 1.5-6.2 3.7-1.9 2.1-5.6 2.1-5.6 3.7-.2 3-3.8 3-3.8 3.3-.5 4.1-3.7 4.1-3.7 3.8.5 4.7-2.2 4.7-2.2 3.8 1.6 5.5-2.4 5.5-2.4 3.5 4.1 8.1.3 8.1.3 4.5 4.3 7.7-.5 7.7-.5h.3s3.2 4.7 7.7.5c0 0 4.6 3.7 8.1-.3 0 0 1.7 3.9 5.5 2.4 0 0 .9 2.7 4.7 2.2 0 0 .8 3.3 4.1 3.7 0 0-.7 3.6 3 3.8 0 0-1.6 3.7 2.1 5.6 0 0-1.9 3.8 1.5 6.2 0 0-3.5 9.5 1.1 8.3 0 0-2.9 3.4-.1 6.5 2.8 3.2 7.3-5.6 7.2-8 0-2.3-1.4-6.7-1.4-6.7z" fill="#2a232b" stroke-width="none" opacity="1" stroke="none"></path><path id="SvgjsPath13389" d="M145.6 81.1c0-.1 0-.2-.1-.2 0-2.2-.6-4.4-1.4-6.1l-.2-.2c.9-1.9.2-4.4-1.1-5.9 0-.1-.1-.1-.1-.1.8-1.9 0-4.2-1.2-5.8-.1-.1-.2-.2-.4-.2.4-2.4-1.3-6.4-3.5-7.1h-.2c.4-2.5-1.9-5.3-4-6.2-.1 0-.2-.1-.3-.1-.6-3.2-3.4-6.3-6.7-6.5h-.2c-.6-2.2-3.5-4.4-5.8-4.1-.1 0-.2.1-.2.1-1.2-2.8-5.2-4-7.9-3.3-1.3-1.8-4.5-1.8-6.2-.6-1.5-1.5-4.2-1.7-6-.5-1.8-1.2-4.5-1-6 .5-1.8-1.2-4.9-1.3-6.2.6-2.9-.6-6.9.6-8.1 3.4-.1-.1-.1-.1-.2-.1-2.3-.3-5.2 1.8-5.8 4.1h-.2c-3.3.2-6.1 3.4-6.7 6.5-.1 0-.2 0-.3.1-2.1 1-4.4 3.7-4 6.2h-.2c-2.2.7-3.9 4.7-3.5 7.1-.1 0-.3 0-.4.2-1.2 1.5-2 3.9-1.2 5.8l-.1.1c-1.2 1.6-2 4-1.1 5.9-.1 0-.1.1-.2.2-.9 1.7-1.5 3.9-1.5 6.1 0 .1-.1.1-.1.2.2 2.6 2.2 8.6 5.3 9.4v.1c1.3.9 3.1-.3 3.6-1.6.7-1.6.2-3.8-1-5 3.8.3 2.4-6.7 1-8.7.1 0 .2 0 .2-.1 1.6-1.3 2.5-4.3 1.1-6.1 2.2-.8 3.4-3.5 2.3-5.5.9.2 2.1-.7 2.5-1.4.4-.6.7-1.8.3-2.6 1 .4 2.4-.6 3.1-1.3.5-.5.9-1.3 1-2.1 1.7.2 4-.6 4.4-2.4 1.2.5 2.6.4 3.7-.3.7-.4 1.5-1.1 1.8-2h.1c1.1 2.5 6.6 2.3 7.9 0 1.9 3.2 6.5 2.7 7.9-.6h.2c1.4 3.3 6 3.8 7.9.6 1.3 2.3 6.7 2.5 7.9 0h.1c.3.8 1.1 1.6 1.8 2 1.2.7 2.5.7 3.7.3.4 1.8 2.7 2.7 4.4 2.4.1.8.5 1.6 1 2.1.6.7 2 1.7 3.1 1.3-.4.7-.1 2 .3 2.6.5.7 1.6 1.6 2.5 1.4-1.1 2 .1 4.7 2.3 5.5-1.4 1.8-.4 4.8 1.1 6.1.1.1.1.1.2.1-1.3 1.9-2.8 9 1.1 8.7-1.3 1.2-1.7 3.5-1 5 .6 1.2 2.3 2.5 3.6 1.6v-.1c3.7-.9 5.7-6.9 5.9-9.5zm-83.8 8.4c-.5.4-1 .3-1.6.3-2.3-1.2-3.5-3.7-4.3-6.3-.1-1.1-.3-2.1-.3-3.2 0-1.4.4-2.8.9-4.1.2 3.4 1.8 6.4 5.3 7.6h.2c-.1.1-.2.2-.1.3.3 1.1 1 2 1 3.2-.1 1-.4 1.8-1.1 2.2zm.5-6.4c-.1 0-.2 0-.3.1-1.5-.8-3-1.6-3.8-3.2-.8-1.6-.8-3.4-1-5.2 0-.2-.2-.3-.3-.4-.2-1.5-.2-2.9.6-4.2 1 2.6 2.4 5.2 5.5 5.4.3 1 .7 2 .9 3.1.2 1.4.5 4.5-1.6 4.4zm2.3-11.2c-.1 1.1-.7 2-1.5 2.7-.1.1-.2.2-.2.3-1.2-.5-2.3-.8-3.1-1.9-.8-1.1-1.2-2.4-1.7-3.6 0-.1.1-.2.1-.3 0-.1.1-.1.1-.2-.3-1.9-.3-3.4.7-4.8.4 1.2 1.2 2.4 2 3.2s1.8 1.5 3 1.7c.3 1 .7 1.8.6 2.9zm-.3-3.4c-1-.6-1.9-1-2.7-1.8-.9-1-1.2-2.4-2.1-3.4v-.1c.4-1.3.4-2.7 1-4 .5-1.1 1.5-1.8 2.1-2.8.4 2.4 1.3 5.9 3.7 6.9.8 2.3.2 4.1-2 5.2zm4.6-6.7c-.3.4-.7.7-1.2.9-.3.1-.5.1-.8.2-.9-1-1.9-1.6-2.5-2.9-.6-1.3-.8-2.8-1.1-4.2v-.1c.3-1 .4-2 .9-2.9.5-.9 1.3-1.6 2.2-2.1.1 3.2.5 6.5 2.8 8.9 0 .3.1.5.1.8 0 .5-.1 1-.4 1.4zM82 52.6c-1 .6-2.1.5-3.2.2-1-4.7-.1-8.7 1.3-13.2.1-.2-.2-.3-.3-.1-2.3 4.3-2.8 8.9-1.9 13.6v.2c-.4.6-.7 1.2-1.4 1.6-.8.5-1.6.5-2.4.3-.2-3.6-.1-7-.1-10.6 0-.2-.3-.2-.3 0-.9 3.5-1.1 7.3-.4 10.8-.1.1-.1.3-.1.4-.3.7-.4 1.4-.9 2-.4.4-.8.6-1.3.8-.4.1-.8.1-1.1.3-.1.1-.2.2-.2.3-1.8-3-2.3-5.6-2.4-9 .1-.1.2-.3.1-.5.4-1.4 1.1-2.8 2.2-3.8 1.2-1.2 2.5-1.7 4.1-2.2.2-.1.3-.2.4-.4.1 0 .1 0 .1-.1.7-.9 1.3-1.8 2.3-2.5.9-.6 2-.7 3-1.1.1 0 .2-.1.2-.2.1.1.3.1.4 0 1.1-.9 1.9-1.9 3.2-2.4 1.4-.5 2.7-.6 4.2-.3-3.1 4-4.1 9.4-4.1 14.3-.4.5-.7 1.2-1.4 1.6zm6.3-.2c-.7.1-1.4.1-2-.2-.8-.3-1.2-1.1-1.8-1.6h-.1c0-5.2 1.7-9.4 3.9-14 .1-.2.2-.4.1-.6.8-.5 1.5-.9 2.5-1 1-.1 1.9.2 2.7.8-2 4.8-1.8 10.4-1.9 15.5v.1c-.9.6-2.3.8-3.4 1zm4.4-1.6c-.1-.1-.1-.2-.2-.2.1-5 .3-9.8 1.6-14.7.1 0 .1 0 .2-.1 1.6-1.4 3.5-1.8 5.4-.8-.4 5.1-.1 10.3-.1 15.5-.1 0-.1 0-.2.1-1.5 2.8-5 2.8-6.7.2zm14.6 0c-1.7 2.5-5.2 2.6-6.8-.2l-.1-.1c0-5.1.2-10.3-.2-15.5 2-1.1 3.8-.7 5.5.7.1.1.1.1.2.1 1.2 4.9 1.5 9.7 1.6 14.7-.1.2-.2.2-.2.3zm6.4 1.3c-.7.3-1.3.3-2 .2-1.1-.1-2.5-.4-3.4-1.1v-.1c-.1-5.1.2-10.7-1.9-15.5.8-.5 1.7-.8 2.7-.8 1 .1 1.7.5 2.5 1-.1.2-.1.4.1.6 2.2 4.7 3.9 8.9 3.9 14h-.1c-.6.7-1 1.4-1.8 1.7zm15.3 6.5c-.5-.2-.9-.4-1.3-.8-.6-.6-.7-1.3-.9-2 0-.2 0-.3-.1-.4.7-3.5.4-7.3-.4-10.8 0-.2-.3-.1-.3 0 .1 3.6.2 7-.1 10.6-.8.2-1.7.2-2.4-.3-.7-.4-1-1-1.4-1.6v-.2c.9-4.7.5-9.3-1.9-13.6-.1-.2-.3 0-.3.1 1.4 4.5 2.3 8.5 1.3 13.2-1.1.3-2.2.4-3.2-.2-.7-.4-1-1.1-1.5-1.7 0-4.9-1-10.3-4.1-14.3 1.4-.3 2.8-.2 4.2.3s2.2 1.5 3.2 2.4c.1.1.3.1.4 0l.2.2c1 .4 2 .5 3 1.1 1 .7 1.6 1.6 2.3 2.5l.1.1c0 .2.2.3.4.4 1.6.5 2.9 1 4.1 2.2 1.1 1.1 1.8 2.4 2.2 3.8 0 .2 0 .3.1.5 0 3.4-.6 6.1-2.4 9 0-.1-.1-.2-.2-.3-.3-.1-.6-.1-1-.2zm3.2 4c-.5-.2-.9-.5-1.2-.9-.3-.4-.4-.8-.4-1.3 0-.3.1-.6.1-.8 2.3-2.4 2.7-5.8 2.8-8.9.9.5 1.7 1.2 2.2 2.1.6.9.7 1.9.9 2.9v.1c-.3 1.4-.5 2.9-1.1 4.2-.6 1.3-1.6 1.9-2.5 2.9-.2-.2-.5-.2-.8-.3zm1.4.7c2.4-1 3.4-4.5 3.7-6.9.6 1 1.6 1.7 2.1 2.8.6 1.3.6 2.6 1.1 4v.1c-.9 1-1.2 2.4-2.1 3.4-.8.9-1.8 1.3-2.7 1.8-2.2-1.1-2.8-2.9-2.1-5.2zm1.8 8.6c-.1-1.1.2-1.9.6-2.8 1.1-.2 2.2-.9 3-1.7.8-.8 1.7-2.1 2-3.2 1 1.4 1 2.9.8 4.7 0 .1 0 .2.1.2 0 .1 0 .2.1.3-.5 1.2-.9 2.6-1.7 3.6-.8 1.1-2 1.4-3.1 1.9 0-.1 0-.2-.1-.3-1-.7-1.5-1.6-1.7-2.7zm.7 6.8c.2-1.1.6-2.1.9-3.1 3.1-.2 4.5-2.8 5.5-5.4.8 1.3.8 2.7.6 4.2-.2 0-.3.2-.3.4-.2 1.8-.2 3.6-1 5.2s-2.2 2.4-3.8 3.2c-.1-.1-.2-.1-.3-.1-2.1.1-1.8-3-1.6-4.4zm3.7 11.1c-.6 0-1.1 0-1.6-.3-.7-.5-1-1.3-1-2-.1-1.2.6-2.1 1-3.2.1-.2 0-.3-.1-.3.1 0 .2.1.2 0 3.5-1.2 5.1-4.2 5.3-7.6.5 1.3.8 2.6.9 4.1 0 1.1-.2 2.1-.3 3.2-.9 2.4-2.1 5-4.4 6.1z" fill="#1b141c" stroke-width="none" opacity="1" stroke="none"></path><path id="SvgjsPath13390" d="M96.6 51c-.9-.7-1.8-1.2-2.3-2.2-.6-1-.6-2-.7-3.1 0-.2-.2-.2-.3 0-.8 2.1 1 5.2 3.2 5.6.2-.1.3-.2.1-.3zm0-3.7c-1.3-1.7-2.1-3.4-2.6-5.5-.1-.2-.4-.2-.4 0 0 2.1 1 4.3 2.7 5.7.1.2.5 0 .3-.2zm.6-4.4c-1.3-1.6-1.8-3.3-2.1-5.3 0-.2-.3-.1-.4 0-.2 2.1.8 4.1 2.2 5.5.3.2.5 0 .3-.2zm-.3-5.6c-.1-.4-.2-.7-.4-1.1-.1-.1-.3-.1-.3.1 0 .4.2.7.3 1.1.1.3.5.1.4-.1zm-8 13.9c-.7-.5-1.4-1.2-1.9-2-.4-.7-.7-1.4-1.1-2.1-.1-.2-.4-.1-.4.1.1 1.9 1.6 3.6 3.1 4.5.3.1.5-.3.3-.5zm.1-3.6c-.9-1.4-1.3-2.9-1.8-4.5-.1-.2-.4-.2-.4 0-.1 1.7.7 3.3 1.7 4.7.2.3.7.1.5-.2zm0-4.6c-.2-.8-.4-1.7-.8-2.5-.1-.2-.4-.1-.4.1.1.8.4 1.7.7 2.5.1.3.6.2.5-.1zm.4-4.3c.1-.6.1-1.2.1-1.7 0-.1-.2-.1-.2 0-.2.6-.2 1.2-.3 1.8.1.1.4.1.4-.1zm-7.6 12.4c-1.4-.8-2-2.2-2.2-3.8 0-.2-.4-.2-.4 0-.5 1.8.8 3.6 2.3 4.3.3.2.6-.3.3-.5zm.2-3.3c-.8-1.5-1.2-3-1.8-4.6-.1-.2-.3-.1-.3 0 .2 1.7.8 3.3 1.7 4.8.2.2.5 0 .4-.2zm0-5c-.4-1.1-.6-2.3-.5-3.4 0-.2-.3-.2-.3 0-.2 1.3 0 2.5.5 3.6 0 .2.4 0 .3-.2zm1.2-3.7c.2-.5.4-1.1.5-1.6 0-.1-.2-.2-.2-.1-.3.5-.4 1.1-.6 1.6-.1.2.3.3.3.1zm-6.5 14.4c-1.1-.7-1.7-1.7-2.3-2.7-.1-.2-.4-.1-.4.1 0 1.4 1.2 2.5 2.4 3.1.4.1.6-.4.3-.5zm-.4-2.9c-.7-1.1-1-2.3-1.3-3.6 0-.2-.3-.1-.3 0-.1 1.3.5 2.7 1.2 3.8.2.3.6 0 .4-.2zm-.1-4c-.3-.7-.5-1.7-.9-2.3-.1-.2-.4-.1-.4.1.1.8.6 1.6.9 2.3 0 .3.4.2.4-.1zm.3-4.2c.2-.6.6-1.3.7-2 0-.2-.3-.2-.4-.1-.4.6-.5 1.3-.8 2-.1.3.4.4.5.1zm-4.8 14.5c-.6-.3-1.1-.6-1.6-1.1-.4-.4-.8-1-1.2-1.5-.1-.2-.4 0-.3.2.2 1.4 1.7 2.4 2.9 2.8.3.2.4-.3.2-.4zm-.6-2.9c-.4-.2-.7-.5-1-.9-.3-.3-.4-.8-.7-1.1-.1-.2-.4-.1-.4.1.1 1 1 1.8 1.8 2.3.4.1.6-.2.3-.4zm-.7-4c-.3-.4-.5-.8-.6-1.3-.1-.4-.1-.8-.2-1.2-.1-.2-.3-.2-.4-.1-.4 1 .2 2.2.9 2.9.1.3.5-.1.3-.3zm-5.3 10.8c.8.8 3.1.7 3.6-.4.1-.2-.1-.5-.3-.4-.5.2-.8.5-1.4.6-.6.1-1.1-.1-1.7-.2-.2-.1-.4.2-.2.4zm-1-2.9c.3.7 1.2 1.5 2 1.2.2-.1.2-.4 0-.5-.3-.1-.6-.1-.8-.2-.3-.2-.6-.4-.8-.7-.2-.2-.5 0-.4.2zm.1-1.8c.4.2.7.5 1.1.7.2.1.3-.2.2-.3-.3-.3-.7-.5-1.1-.8-.3-.2-.5.2-.2.4zm-2.4 9.7c.5.5 1.1.7 1.8.7.6 0 1.4-.3 1.7-.9.1-.2-.1-.5-.4-.4-.5.2-.8.5-1.3.6-.5.1-1-.1-1.5-.3-.2-.3-.5.1-.3.3zm-1-1.6c.6.7 2.1.9 2.5-.2.1-.2-.2-.3-.3-.2-.6.2-1.2.5-1.7 0-.4-.2-.8.2-.5.4zm-1.2 7.6c.8.7 2.4 1.4 3.4.6.2-.2.2-.5-.1-.5-.5 0-1 .2-1.5.1-.6 0-1.1-.2-1.6-.6-.1 0-.4.3-.2.4zm-1.1-3.4c.4.8 1.4 1.3 2.3.9.2-.1.1-.4-.1-.4-.7.1-1.4-.1-1.7-.7-.2-.4-.7-.1-.5.2zm.4 11.6c1 .9 2.5 1.4 3.7.7.1-.1.1-.3-.1-.3-1.2.1-2.4.1-3.4-.7-.1-.1-.4.2-.2.3zm-1.2-4c.4 1 1.4 2.2 2.6 2 .2 0 .2-.3.1-.4-.4-.3-.8-.4-1.2-.7-.5-.3-.8-.7-1.1-1.2-.1-.2-.5 0-.4.3zM56 83c.6 2 2.5 4.1 4.8 3.9.2 0 .3-.3.1-.4-2-.6-3.7-1.5-4.6-3.6-.1-.1-.4 0-.3.1zm-.1-1.9c.1.6.3 1.2.7 1.6.4.4 1 .9 1.6.9.3 0 .3-.3.1-.5-.4-.3-.9-.4-1.2-.8-.4-.4-.7-.8-.8-1.3-.1-.1-.4-.1-.4.1zM101 46c-.4 3 2.5 5.8 5.4 4.5.2-.1.1-.3-.1-.3-2.7.3-5.1-1.2-5.1-4.1.1-.3-.2-.3-.2-.1zm-.2-3.6c.2 1.6 1.4 3.8 3.2 4 .2 0 .5-.2.2-.4-.6-.5-1.3-.8-1.8-1.4-.6-.6-1-1.4-1.3-2.3-.1-.2-.4-.1-.3.1zm0-4c.3 1.2 1.1 2.7 2.3 3.3.2.1.5-.2.3-.3-.4-.4-.9-.8-1.2-1.2-.4-.5-.8-1.1-1-1.8-.2-.3-.5-.2-.4 0zm.9-2.8c.2.6.3 1.2.6 1.8.1.2.3.1.3-.1-.1-.6-.3-1.2-.5-1.8 0-.3-.5-.2-.4.1zm7.2 12c.6 1.4 1.8 2.7 3.3 3 .1 0 .2-.2.1-.2-1.3-.7-2.4-1.5-3.1-2.9 0-.2-.4-.1-.3.1zm.8-2.7c1.3.8 2.2 1.8 3.3 2.8.2.1.4 0 .3-.2-.7-1.3-2.1-2.2-3.4-2.8-.2-.2-.4.1-.2.2zm-.3-2.8c.6.3 1.3.6 1.9.9.1 0 .2-.1.1-.2-.6-.3-1.3-.6-1.9-.9-.1-.1-.2.1-.1.2zm-1.1-4.1c.6.5 1.3 1.1 2 1.5.1.1.2-.1.2-.2-.6-.6-1.2-1.1-1.9-1.6-.2-.1-.5.1-.3.3zm.5-1.3c.2 0 .2-.2 0-.2s-.2.2 0 .2zm8 12.1c.4.6.9 1.3 1.5 1.8.2.1.4-.1.3-.3-.3-.6-1-1.2-1.5-1.7-.1-.2-.4 0-.3.2zm-1.1-4.6c.3.8.8 1.5 1.3 2.1.5.5 1.1 1.1 1.8 1.2.2 0 .2-.2.2-.4-.4-.5-1.1-.9-1.6-1.3-.5-.5-1-1.1-1.4-1.7-.1-.4-.4-.1-.3.1zm-.9-3.5c.8.7 1.7 1.6 2.7 2.1.2.1.4-.1.2-.3-.3-.4-.8-.7-1.2-1.1-.5-.3-.9-.7-1.4-1-.2-.2-.5.1-.3.3zm-.2-3c.8.5 1.6 1.3 2.5 1.6.2.1.4-.2.2-.4-.6-.7-1.7-1.1-2.5-1.6-.3-.2-.5.2-.2.4zm7.9 14.1c.2 1 .8 2.1 1.8 2.5.1 0 .2-.1.1-.2-.7-.8-1.4-1.4-1.7-2.4 0-.2-.2-.1-.2.1zm.6-4.7c.4 1.2.8 2.6 1.5 3.7.1.2.4.1.3-.1-.4-1.3-1.1-2.5-1.6-3.7-.1-.1-.3 0-.2.1zm-1.2-4.1c.5.9 1 2 1.8 2.8.1.1.3 0 .3-.2-.4-1-1.1-2-1.7-2.9-.1-.1-.5.1-.4.3zm5.6 10.6c.5.9 1 1.9 1.6 2.8.1.1.3 0 .2-.1-.5-1-1.1-1.9-1.6-2.8 0-.2-.2-.1-.2.1zm.2-3.6c.2 1.1.7 2.3 1.6 3.1.1.1.4 0 .3-.2-.7-.9-1.3-1.8-1.6-2.9 0-.2-.3-.2-.3 0zm-.3-4.5c.2.3.3.7.6 1 .1.1.2 0 .2-.1-.1-.4-.3-.7-.5-1.1-.1-.1-.4.1-.3.2zm5 12.1c-.2 1.1-.3 2.3.2 3.3.1.2.4.1.4-.1-.1-1.1-.4-2.1-.3-3.2.1-.1-.2-.2-.3 0zm1.2-1.7c0 1-.1 2 .1 3 0 .2.3.1.3 0 .1-1-.1-2-.2-3 .1-.2-.2-.2-.2 0zm1 7.4c-.2.9-.2 1.9.4 2.7.1.1.2 0 .2-.1-.3-.8-.5-1.7-.3-2.5.1-.2-.2-.3-.3-.1zm1.5-2.3c-.6 1.1-1 2.7-.2 3.8.1.1.4.1.3-.1-.1-1.3-.4-2.3.2-3.6 0-.1-.2-.2-.3-.1zm1.3-1.7c-.1.3-.1.6-.1.9 0 .1.1.1.1 0 .1-.3.1-.6.2-.9h-.2zm-1.2 11c-.3 1-.4 2.2.2 3.1.1.2.4.1.3-.1-.2-1-.4-1.8-.2-2.9.1-.2-.2-.3-.3-.1zm1.5-.5c-.2 1-.1 2.1.5 2.9.1.1.2 0 .2-.1-.4-.9-.6-1.7-.5-2.7 0-.2-.2-.3-.2-.1zm-.5 5.7c-1.4 1.8-1.8 4.7-.1 6.5.2.2.4-.1.3-.2-1-2-1.3-4.1 0-6.1.1-.2-.1-.3-.2-.2zm1.3.5c-.5 1-.9 2.4-.4 3.5.1.2.4.1.4-.1 0-.5-.1-1-.1-1.5 0-.6.1-1.2.4-1.7.1-.3-.2-.5-.3-.2zm1.2-1c0 .6-.1 1.2 0 1.8 0 .1.2.1.3 0 .1-.6 0-1.2 0-1.8 0-.2-.3-.2-.3 0zm-.4 10.6c-.2.8-.4 1.8.1 2.6.1.1.3.1.3-.1 0-.8-.2-1.6 0-2.4.1-.3-.3-.4-.4-.1zm1.7-1.4c-.1.6-.2 1.2-.1 1.7 0 .2.3.3.4.1.2-.6.2-1.2.2-1.8 0-.3-.5-.3-.5 0z" fill="#3a353a" stroke-width="none" opacity="1" stroke="none"></path></g><g id="svga-group-glasses-single-move" transform="matrix(1,0,0,1,0,0)"><g id="svga-group-glasses-single"></g></g></g></g></g><rect id="svga-credit-rect" width="200" height="15" x="0" y="185" fill="#ecf0f1" opacity="0.5" style="display: none;"></rect><text id="svga-credit-text" font-family="Avenir Next, Roboto, Helvetica, Arial, sans-serif" font-size="10px" text-anchor="start" font-weight="400" size="10px" anchor="start" weight="400" fill="#333333" x="33.40447998046875" y="182.60824704170227" style="display: none;"><tspan id="SvgjsTspan13088" dy="13" x="33.40447998046875">Created on AvatarMaker.com</tspan></text></g><defs id="SvgjsDefs13035"></defs></svg>